G04 EAGLE Gerber RS-274X export*
G75*
%MOMM*%
%FSLAX34Y34*%
%LPD*%
%INSoldermask Bottom*%
%IPPOS*%
%AMOC8*
5,1,8,0,0,1.08239X$1,22.5*%
G01*
%ADD10C,1.524000*%
%ADD11C,2.184400*%
%ADD12P,1.649562X8X202.500000*%
%ADD13C,1.524000*%
%ADD14R,2.153200X2.153200*%
%ADD15C,2.153200*%
%ADD16R,1.727200X1.727200*%
%ADD17C,1.727200*%
%ADD18R,1.703200X1.703200*%
%ADD19C,1.703200*%
%ADD20C,1.727200*%
%ADD21C,3.403200*%
%ADD22P,1.649562X8X292.500000*%
%ADD23C,0.959600*%

G36*
X25510Y685055D02*
X25510Y685055D01*
X25581Y685061D01*
X25629Y685081D01*
X25680Y685092D01*
X25741Y685129D01*
X25807Y685157D01*
X25863Y685202D01*
X25891Y685218D01*
X25906Y685236D01*
X25938Y685262D01*
X26985Y686309D01*
X140970Y686309D01*
X140990Y686312D01*
X141009Y686310D01*
X141111Y686332D01*
X141213Y686349D01*
X141230Y686358D01*
X141250Y686362D01*
X141339Y686415D01*
X141430Y686464D01*
X141444Y686478D01*
X141461Y686488D01*
X141528Y686567D01*
X141600Y686642D01*
X141608Y686660D01*
X141621Y686675D01*
X141660Y686771D01*
X141703Y686865D01*
X141705Y686885D01*
X141713Y686903D01*
X141731Y687070D01*
X141731Y798830D01*
X141717Y798920D01*
X141709Y799011D01*
X141697Y799041D01*
X141692Y799073D01*
X141649Y799153D01*
X141613Y799237D01*
X141587Y799269D01*
X141576Y799290D01*
X141553Y799312D01*
X141532Y799339D01*
X271998Y799339D01*
X272266Y795585D01*
X272270Y795581D01*
X272267Y795578D01*
X273208Y791256D01*
X273212Y791252D01*
X273210Y791249D01*
X274755Y787105D01*
X274760Y787102D01*
X274758Y787099D01*
X276878Y783217D01*
X276883Y783214D01*
X276882Y783211D01*
X279532Y779670D01*
X279537Y779668D01*
X279537Y779665D01*
X282665Y776537D01*
X282670Y776536D01*
X282670Y776532D01*
X286211Y773882D01*
X286216Y773882D01*
X286217Y773878D01*
X290099Y771758D01*
X290104Y771759D01*
X290105Y771755D01*
X294249Y770210D01*
X294254Y770211D01*
X294256Y770208D01*
X298578Y769267D01*
X298583Y769270D01*
X298585Y769266D01*
X302997Y768951D01*
X303001Y768954D01*
X303004Y768951D01*
X307415Y769266D01*
X307419Y769270D01*
X307422Y769267D01*
X311744Y770208D01*
X311748Y770212D01*
X311751Y770210D01*
X315895Y771755D01*
X315898Y771760D01*
X315901Y771758D01*
X319783Y773878D01*
X319786Y773883D01*
X319789Y773882D01*
X323330Y776532D01*
X323332Y776537D01*
X323336Y776537D01*
X326463Y779665D01*
X326464Y779670D01*
X326468Y779670D01*
X329118Y783211D01*
X329118Y783216D01*
X329122Y783217D01*
X331242Y787099D01*
X331241Y787104D01*
X331245Y787105D01*
X332790Y791249D01*
X332789Y791254D01*
X332792Y791256D01*
X333733Y795578D01*
X333731Y795581D01*
X333732Y795582D01*
X333731Y795583D01*
X333734Y795585D01*
X334049Y799997D01*
X334048Y799999D01*
X334049Y800000D01*
X334049Y840000D01*
X334048Y840002D01*
X334049Y840004D01*
X333731Y844421D01*
X333727Y844425D01*
X333730Y844428D01*
X332778Y848754D01*
X332774Y848757D01*
X332776Y848760D01*
X331211Y852903D01*
X331206Y852906D01*
X331208Y852910D01*
X329062Y856784D01*
X329057Y856787D01*
X329058Y856790D01*
X326377Y860315D01*
X326371Y860316D01*
X326372Y860320D01*
X323210Y863422D01*
X323205Y863422D01*
X323205Y863426D01*
X319629Y866040D01*
X319608Y866039D01*
X319601Y866049D01*
X319600Y866049D01*
X286400Y866049D01*
X286399Y866049D01*
X286383Y866036D01*
X286371Y866040D01*
X282795Y863426D01*
X282794Y863421D01*
X282790Y863422D01*
X279628Y860320D01*
X279627Y860315D01*
X279624Y860315D01*
X276942Y856790D01*
X276942Y856785D01*
X276938Y856784D01*
X274792Y852910D01*
X274793Y852905D01*
X274789Y852903D01*
X273224Y848760D01*
X273226Y848755D01*
X273222Y848754D01*
X272856Y847090D01*
X272318Y847628D01*
X272244Y847681D01*
X272175Y847741D01*
X272145Y847753D01*
X272119Y847772D01*
X272032Y847799D01*
X271947Y847833D01*
X271906Y847837D01*
X271883Y847844D01*
X271851Y847843D01*
X271780Y847851D01*
X46990Y847851D01*
X46900Y847837D01*
X46809Y847829D01*
X46779Y847817D01*
X46747Y847812D01*
X46667Y847769D01*
X46583Y847733D01*
X46551Y847707D01*
X46530Y847696D01*
X46508Y847673D01*
X46452Y847628D01*
X37562Y838738D01*
X37509Y838664D01*
X37449Y838595D01*
X37437Y838565D01*
X37418Y838539D01*
X37391Y838452D01*
X37357Y838367D01*
X37353Y838326D01*
X37346Y838303D01*
X37347Y838271D01*
X37339Y838200D01*
X37339Y800100D01*
X37342Y800080D01*
X37340Y800061D01*
X37362Y799959D01*
X37379Y799857D01*
X37388Y799840D01*
X37392Y799820D01*
X37445Y799731D01*
X37494Y799640D01*
X37508Y799626D01*
X37518Y799609D01*
X37597Y799542D01*
X37672Y799471D01*
X37690Y799462D01*
X37705Y799449D01*
X37801Y799410D01*
X37895Y799367D01*
X37915Y799365D01*
X37933Y799357D01*
X38100Y799339D01*
X94685Y799339D01*
X94680Y799334D01*
X94644Y799277D01*
X94599Y799225D01*
X94578Y799173D01*
X94549Y799126D01*
X94533Y799060D01*
X94507Y798997D01*
X94499Y798919D01*
X94491Y798887D01*
X94493Y798866D01*
X94489Y798830D01*
X94489Y740725D01*
X87315Y733551D01*
X26670Y733551D01*
X26580Y733537D01*
X26489Y733529D01*
X26459Y733517D01*
X26427Y733512D01*
X26347Y733469D01*
X26263Y733433D01*
X26231Y733407D01*
X26210Y733396D01*
X26188Y733373D01*
X26132Y733328D01*
X24862Y732058D01*
X24809Y731984D01*
X24749Y731915D01*
X24737Y731885D01*
X24718Y731859D01*
X24691Y731772D01*
X24657Y731687D01*
X24653Y731646D01*
X24646Y731623D01*
X24647Y731591D01*
X24639Y731520D01*
X24639Y685800D01*
X24650Y685729D01*
X24652Y685658D01*
X24670Y685609D01*
X24679Y685557D01*
X24712Y685494D01*
X24737Y685427D01*
X24769Y685386D01*
X24794Y685340D01*
X24845Y685291D01*
X24890Y685235D01*
X24934Y685206D01*
X24972Y685171D01*
X25037Y685140D01*
X25097Y685102D01*
X25148Y685089D01*
X25195Y685067D01*
X25266Y685059D01*
X25336Y685041D01*
X25388Y685046D01*
X25439Y685040D01*
X25510Y685055D01*
G37*
G36*
X319617Y873964D02*
X319617Y873964D01*
X319629Y873960D01*
X323205Y876574D01*
X323206Y876579D01*
X323210Y876578D01*
X326372Y879680D01*
X326373Y879685D01*
X326377Y879685D01*
X329058Y883210D01*
X329058Y883215D01*
X329062Y883216D01*
X331208Y887090D01*
X331207Y887095D01*
X331211Y887097D01*
X332776Y891240D01*
X332774Y891245D01*
X332778Y891247D01*
X333730Y895572D01*
X333727Y895577D01*
X333731Y895579D01*
X334049Y899996D01*
X334048Y899999D01*
X334049Y900000D01*
X334049Y940000D01*
X334048Y940002D01*
X334049Y940004D01*
X333734Y944415D01*
X333730Y944419D01*
X333733Y944422D01*
X332792Y948744D01*
X332788Y948748D01*
X332790Y948751D01*
X331245Y952895D01*
X331240Y952898D01*
X331242Y952901D01*
X329122Y956783D01*
X329117Y956786D01*
X329118Y956789D01*
X326468Y960330D01*
X326463Y960332D01*
X326463Y960336D01*
X323336Y963463D01*
X323330Y963464D01*
X323330Y963468D01*
X319789Y966118D01*
X319784Y966118D01*
X319783Y966122D01*
X315901Y968242D01*
X315896Y968241D01*
X315895Y968245D01*
X311751Y969790D01*
X311746Y969789D01*
X311744Y969792D01*
X307422Y970733D01*
X307417Y970730D01*
X307415Y970734D01*
X303004Y971049D01*
X302999Y971046D01*
X302997Y971049D01*
X298585Y970734D01*
X298581Y970730D01*
X298578Y970733D01*
X294256Y969792D01*
X294252Y969788D01*
X294249Y969790D01*
X290105Y968245D01*
X290102Y968240D01*
X290099Y968242D01*
X286217Y966122D01*
X286214Y966117D01*
X286211Y966118D01*
X282670Y963468D01*
X282668Y963463D01*
X282665Y963463D01*
X279537Y960336D01*
X279536Y960330D01*
X279532Y960330D01*
X278891Y959474D01*
X278891Y965200D01*
X278877Y965290D01*
X278869Y965381D01*
X278857Y965411D01*
X278852Y965443D01*
X278809Y965523D01*
X278773Y965607D01*
X278747Y965639D01*
X278736Y965660D01*
X278713Y965682D01*
X278668Y965738D01*
X276128Y968278D01*
X276054Y968331D01*
X275985Y968391D01*
X275955Y968403D01*
X275929Y968422D01*
X275842Y968449D01*
X275757Y968483D01*
X275716Y968487D01*
X275693Y968494D01*
X275661Y968493D01*
X275590Y968501D01*
X27940Y968501D01*
X27850Y968487D01*
X27759Y968479D01*
X27729Y968467D01*
X27697Y968462D01*
X27617Y968419D01*
X27533Y968383D01*
X27501Y968357D01*
X27480Y968346D01*
X27458Y968323D01*
X27402Y968278D01*
X24862Y965738D01*
X24809Y965664D01*
X24749Y965595D01*
X24737Y965565D01*
X24718Y965539D01*
X24691Y965452D01*
X24657Y965367D01*
X24653Y965326D01*
X24646Y965303D01*
X24647Y965271D01*
X24639Y965200D01*
X24639Y914400D01*
X24642Y914380D01*
X24640Y914361D01*
X24662Y914259D01*
X24679Y914157D01*
X24688Y914140D01*
X24692Y914120D01*
X24745Y914031D01*
X24794Y913940D01*
X24808Y913926D01*
X24818Y913909D01*
X24897Y913842D01*
X24972Y913771D01*
X24990Y913762D01*
X25005Y913749D01*
X25101Y913710D01*
X25195Y913667D01*
X25215Y913665D01*
X25233Y913657D01*
X25400Y913639D01*
X271951Y913639D01*
X271951Y900000D01*
X271952Y899998D01*
X271951Y899996D01*
X272269Y895579D01*
X272273Y895575D01*
X272270Y895572D01*
X273222Y891247D01*
X273226Y891243D01*
X273224Y891240D01*
X274789Y887097D01*
X274794Y887094D01*
X274792Y887090D01*
X276938Y883216D01*
X276943Y883214D01*
X276942Y883210D01*
X279624Y879685D01*
X279629Y879684D01*
X279628Y879680D01*
X282790Y876578D01*
X282795Y876578D01*
X282795Y876574D01*
X286371Y873960D01*
X286393Y873961D01*
X286400Y873951D01*
X319600Y873951D01*
X319617Y873964D01*
G37*
D10*
X1417100Y48700D03*
X1442500Y48700D03*
X1442500Y124900D03*
X1417100Y124900D03*
X1467900Y48700D03*
X1493300Y48700D03*
X1467900Y124900D03*
X1493300Y124900D03*
D11*
X1550394Y47354D02*
X1570206Y47354D01*
X1570206Y97646D02*
X1550394Y97646D01*
X60406Y941046D02*
X40594Y941046D01*
X40594Y890754D02*
X60406Y890754D01*
X1110362Y49706D02*
X1110362Y29894D01*
X1160400Y29894D02*
X1160400Y49706D01*
X1210438Y49706D02*
X1210438Y29894D01*
X64106Y822046D02*
X44294Y822046D01*
X44294Y771754D02*
X64106Y771754D01*
X60106Y708446D02*
X40294Y708446D01*
X40294Y658154D02*
X60106Y658154D01*
X924754Y49706D02*
X924754Y29894D01*
X975046Y29894D02*
X975046Y49706D01*
X792354Y49706D02*
X792354Y29894D01*
X842646Y29894D02*
X842646Y49706D01*
D12*
X1342000Y141900D03*
X1329300Y122850D03*
X1316600Y141900D03*
D13*
X913604Y226240D02*
X900396Y226240D01*
X900396Y175440D02*
X913604Y175440D01*
X913604Y200840D02*
X900396Y200840D01*
X1410396Y587500D02*
X1423604Y587500D01*
X1423604Y536700D02*
X1410396Y536700D01*
X1410396Y562100D02*
X1423604Y562100D01*
D14*
X289800Y616800D03*
D15*
X289800Y538800D03*
X714800Y690800D03*
X714800Y464800D03*
D16*
X1080050Y747800D03*
D17*
X1080050Y976400D03*
X1105450Y747800D03*
X1105450Y976400D03*
X1130850Y747800D03*
X1130850Y976400D03*
X1156250Y747800D03*
X1156250Y976400D03*
X1181650Y747800D03*
X1181650Y976400D03*
X1207050Y747800D03*
X1207050Y976400D03*
X1232450Y747800D03*
X1232450Y976400D03*
X1257850Y747800D03*
X1257850Y976400D03*
X1283250Y747800D03*
X1283250Y976400D03*
X1308650Y747800D03*
X1308650Y976400D03*
X1334050Y747800D03*
X1334050Y976400D03*
X1359450Y747800D03*
X1359450Y976400D03*
X1384850Y747800D03*
X1384850Y976400D03*
X1410250Y747800D03*
X1410250Y976400D03*
X1435650Y747800D03*
X1435650Y976400D03*
X1461050Y747800D03*
X1461050Y976400D03*
D18*
X517000Y850900D03*
D19*
X517000Y870000D03*
X517000Y889100D03*
D11*
X1551594Y507562D02*
X1571406Y507562D01*
X1571406Y557600D02*
X1551594Y557600D01*
X1551594Y607638D02*
X1571406Y607638D01*
X1571406Y334662D02*
X1551594Y334662D01*
X1551594Y384700D02*
X1571406Y384700D01*
X1571406Y434738D02*
X1551594Y434738D01*
X1551594Y161762D02*
X1571406Y161762D01*
X1571406Y211800D02*
X1551594Y211800D01*
X1551594Y261838D02*
X1571406Y261838D01*
D13*
X479880Y46604D02*
X479880Y33396D01*
X505280Y33396D02*
X505280Y46604D01*
X530680Y46604D02*
X530680Y33396D01*
X556080Y33396D02*
X556080Y46604D01*
X581480Y46604D02*
X581480Y33396D01*
X606880Y33396D02*
X606880Y46604D01*
X632280Y46604D02*
X632280Y33396D01*
D20*
X144600Y32380D02*
X144600Y47620D01*
X170000Y47620D02*
X170000Y32380D01*
X195400Y32380D02*
X195400Y47620D01*
D21*
X342900Y215900D03*
X690880Y925830D03*
D22*
X1412240Y466090D03*
X1431290Y453390D03*
X1412240Y440690D03*
D21*
X1350010Y325120D03*
D23*
X1280000Y382620D03*
X553020Y146350D03*
X586740Y916940D03*
X608330Y916940D03*
X558800Y817880D03*
X779780Y563880D03*
X828040Y459740D03*
X1238250Y652780D03*
X1326520Y645160D03*
X1389220Y476600D03*
X1509400Y685800D03*
X1233010Y146400D03*
X1174590Y154020D03*
X826610Y242920D03*
X760570Y131160D03*
X1115060Y708660D03*
X610170Y195880D03*
X631760Y195880D03*
X787400Y685800D03*
X711200Y787400D03*
X558800Y762000D03*
X1244600Y812800D03*
X1397000Y812800D03*
X1346200Y560070D03*
X1219200Y457200D03*
X851490Y392090D03*
X787400Y609600D03*
X939800Y660400D03*
X939800Y431800D03*
X1041400Y228600D03*
X1193800Y304800D03*
X1216660Y532130D03*
X1473200Y177800D03*
X1447800Y685800D03*
X1346200Y711200D03*
X1219200Y711200D03*
X1143000Y787400D03*
X1143000Y914400D03*
X1244600Y914400D03*
X1371600Y914400D03*
X1524000Y939800D03*
X1041400Y50800D03*
X1066800Y152400D03*
X660400Y254000D03*
X563880Y246380D03*
X558800Y381000D03*
X703580Y579120D03*
X701040Y640080D03*
X558800Y965200D03*
X635000Y965200D03*
X660400Y863600D03*
X889000Y558800D03*
X685800Y381000D03*
X748200Y351000D03*
X990600Y609600D03*
X1041400Y431800D03*
X1193800Y381000D03*
X939800Y508000D03*
X728980Y177800D03*
X1270000Y279400D03*
X581660Y264160D03*
X1531620Y608330D03*
X1531620Y435610D03*
X1531620Y260350D03*
X1529080Y97790D03*
X1122680Y240030D03*
X563880Y279400D03*
X1353820Y35560D03*
X1328420Y35560D03*
X1208220Y136340D03*
X1290320Y464820D03*
X632280Y886640D03*
X580390Y132080D03*
X604520Y146700D03*
X1363400Y91512D03*
X939800Y248920D03*
X1181100Y180340D03*
M02*
