M48
;GenerationSoftware,Autodesk,EAGLE,9.6.2*%
;CreationDate,2026-02-26T13:36:33Z*%
FMAT,2
ICI,OFF
METRIC,TZ,000.000
T8C0.350
T7C0.800
T6C0.813
T5C1.016
T4C1.300
T3C1.321
T2C3.200
T1C3.500
%
G90
M71
T1
X30300Y92000
X30300Y82000
T2
X34290Y21590
X69088Y92583
X135001Y32512
T3
X5420Y77175
X5420Y82205
X121044Y3980
X116040Y3980
X111036Y3980
X5050Y89075
X5050Y94105
X156030Y9765
X156030Y4735
X97505Y3980
X79235Y3980
X84265Y3980
X156150Y26184
X156150Y21180
X156150Y16176
X156150Y43474
X156150Y38470
X156150Y33466
X156150Y60764
X5020Y70845
X156150Y55760
X156150Y50756
X5020Y65815
X92475Y3980
T4
X28980Y61680
X28980Y53880
X71480Y46480
X71480Y69080
T5
X19540Y4000
X17000Y4000
X14460Y4000
X128325Y74780
X146105Y97640
X130865Y74780
X128325Y97640
X135945Y97640
X125785Y97640
X125785Y74780
X123245Y97640
X123245Y74780
X120705Y97640
X120705Y74780
X118165Y97640
X118165Y74780
X115625Y97640
X115625Y74780
X138485Y74780
X113085Y74780
X110545Y97640
X110545Y74780
X108005Y97640
X108005Y74780
X133405Y97640
X133405Y74780
X135945Y74780
X130865Y97640
X138485Y97640
X141025Y74780
X141025Y97640
X143565Y74780
X143565Y97640
X146105Y74780
X113085Y97640
T6
X141700Y56210
X47988Y4000
X50528Y4000
X53068Y4000
X55608Y4000
X58148Y4000
X60688Y4000
X63228Y4000
X141224Y46609
X143129Y45339
X141224Y44069
X149330Y12490
X141710Y4870
X144250Y4870
X144250Y12490
X141710Y12490
X146790Y4870
X149330Y4870
X146790Y12490
X90700Y20084
X134200Y14190
X132930Y12285
X131660Y14190
X90700Y22624
X90700Y17544
X141700Y58750
X141700Y53670
T7
X51700Y85090
X51700Y87000
X51700Y88910
T8
X60833Y91694
X55880Y81788
X77978Y56388
X82804Y45974
X123825Y65278
X132652Y64516
X138922Y47660
X150940Y68580
X60452Y14670
X58039Y13208
X56388Y27940
X63228Y88664
X129032Y46482
X120822Y13634
X58166Y26416
X127000Y27940
X72898Y17780
X93980Y50800
X119380Y38100
X104140Y43180
X99060Y60960
X74820Y35100
X68580Y38100
X88900Y55880
X66040Y86360
X63500Y96520
X55880Y96520
X70104Y64008
X70358Y57912
X55880Y38100
X56388Y24638
X66040Y25400
X106680Y15240
X104140Y5080
X152400Y93980
X137160Y91440
X124460Y91440
X114300Y91440
X114300Y78740
X121920Y71120
X134620Y71120
X144780Y68580
X147320Y17780
X121666Y53213
X119380Y30480
X104140Y22860
X93980Y43180
X93980Y66040
X78740Y60960
X85149Y39209
X128000Y38262
X55302Y14635
X58674Y91694
X121920Y45720
X134620Y56007
X124460Y81280
X139700Y81280
X55880Y76200
X71120Y78740
X78740Y68580
X63176Y19588
X61017Y19588
X111506Y70866
X76057Y13116
X132842Y3556
X135382Y3556
X112268Y24003
X152908Y9779
X153162Y26035
X153162Y43561
X153162Y60833
X82661Y24292
X117459Y15402
X123301Y14640
X118110Y18034
X93980Y24892
X136340Y9151
M30