G04 EAGLE Gerber RS-274X export*
G75*
%MOMM*%
%FSLAX34Y34*%
%LPD*%
%INBottom Copper*%
%IPPOS*%
%AMOC8*
5,1,8,0,0,1.08239X$1,22.5*%
G01*
%ADD10C,1.320800*%
%ADD11C,1.981200*%
%ADD12P,1.429621X8X202.500000*%
%ADD13C,1.320800*%
%ADD14R,1.950000X1.950000*%
%ADD15C,1.950000*%
%ADD16R,1.524000X1.524000*%
%ADD17C,1.524000*%
%ADD18R,1.500000X1.500000*%
%ADD19C,1.500000*%
%ADD20P,5.411950X8X112.500000*%
%ADD21C,1.524000*%
%ADD22P,1.429621X8X292.500000*%
%ADD23C,0.756400*%
%ADD24C,0.254000*%
%ADD25C,3.810000*%
%ADD26C,2.540000*%

G36*
X1595800Y3064D02*
X1595800Y3064D01*
X1595919Y3071D01*
X1595957Y3084D01*
X1595998Y3089D01*
X1596108Y3132D01*
X1596221Y3169D01*
X1596256Y3191D01*
X1596293Y3206D01*
X1596389Y3275D01*
X1596490Y3339D01*
X1596518Y3369D01*
X1596551Y3392D01*
X1596627Y3484D01*
X1596708Y3571D01*
X1596728Y3606D01*
X1596753Y3637D01*
X1596804Y3745D01*
X1596862Y3849D01*
X1596872Y3889D01*
X1596889Y3925D01*
X1596911Y4042D01*
X1596941Y4157D01*
X1596945Y4217D01*
X1596949Y4237D01*
X1596947Y4258D01*
X1596951Y4318D01*
X1596951Y995682D01*
X1596936Y995800D01*
X1596929Y995919D01*
X1596916Y995957D01*
X1596911Y995998D01*
X1596868Y996108D01*
X1596831Y996221D01*
X1596809Y996256D01*
X1596794Y996293D01*
X1596725Y996389D01*
X1596661Y996490D01*
X1596631Y996518D01*
X1596608Y996551D01*
X1596516Y996627D01*
X1596429Y996708D01*
X1596394Y996728D01*
X1596363Y996753D01*
X1596255Y996804D01*
X1596151Y996862D01*
X1596111Y996872D01*
X1596075Y996889D01*
X1595958Y996911D01*
X1595843Y996941D01*
X1595783Y996945D01*
X1595763Y996949D01*
X1595742Y996947D01*
X1595682Y996951D01*
X1070588Y996951D01*
X1070470Y996936D01*
X1070351Y996929D01*
X1070313Y996916D01*
X1070272Y996911D01*
X1070162Y996868D01*
X1070049Y996831D01*
X1070014Y996809D01*
X1069977Y996794D01*
X1069881Y996725D01*
X1069780Y996661D01*
X1069752Y996631D01*
X1069719Y996608D01*
X1069643Y996516D01*
X1069562Y996429D01*
X1069542Y996394D01*
X1069517Y996363D01*
X1069466Y996255D01*
X1069408Y996151D01*
X1069398Y996111D01*
X1069381Y996075D01*
X1069359Y995958D01*
X1069329Y995843D01*
X1069325Y995783D01*
X1069321Y995763D01*
X1069323Y995742D01*
X1069319Y995682D01*
X1069319Y983821D01*
X1069336Y983683D01*
X1069349Y983544D01*
X1069356Y983525D01*
X1069359Y983505D01*
X1069410Y983376D01*
X1069457Y983245D01*
X1069468Y983228D01*
X1069476Y983210D01*
X1069557Y983097D01*
X1069635Y982982D01*
X1069651Y982969D01*
X1069662Y982952D01*
X1069770Y982863D01*
X1069874Y982772D01*
X1069892Y982762D01*
X1069907Y982749D01*
X1070033Y982690D01*
X1070157Y982627D01*
X1070177Y982623D01*
X1070195Y982614D01*
X1070331Y982588D01*
X1070467Y982557D01*
X1070488Y982558D01*
X1070507Y982554D01*
X1070646Y982563D01*
X1070785Y982567D01*
X1070805Y982573D01*
X1070825Y982574D01*
X1070957Y982617D01*
X1071091Y982655D01*
X1071108Y982666D01*
X1071127Y982672D01*
X1071245Y982747D01*
X1071365Y982817D01*
X1071386Y982835D01*
X1071396Y982842D01*
X1071410Y982857D01*
X1071485Y982923D01*
X1074007Y985445D01*
X1077928Y987069D01*
X1082172Y987069D01*
X1086093Y985445D01*
X1089095Y982443D01*
X1090719Y978522D01*
X1090719Y974278D01*
X1089095Y970357D01*
X1086093Y967355D01*
X1082172Y965731D01*
X1077928Y965731D01*
X1074007Y967355D01*
X1071485Y969877D01*
X1071396Y969946D01*
X1071366Y969974D01*
X1071350Y969983D01*
X1071269Y970051D01*
X1071250Y970059D01*
X1071234Y970072D01*
X1071106Y970127D01*
X1070981Y970186D01*
X1070961Y970190D01*
X1070942Y970198D01*
X1070804Y970220D01*
X1070668Y970246D01*
X1070648Y970245D01*
X1070628Y970248D01*
X1070489Y970235D01*
X1070351Y970226D01*
X1070332Y970220D01*
X1070312Y970218D01*
X1070180Y970171D01*
X1070049Y970128D01*
X1070031Y970117D01*
X1070012Y970110D01*
X1069897Y970032D01*
X1069780Y969958D01*
X1069766Y969943D01*
X1069749Y969932D01*
X1069657Y969828D01*
X1069562Y969726D01*
X1069552Y969709D01*
X1069539Y969693D01*
X1069475Y969569D01*
X1069408Y969448D01*
X1069403Y969428D01*
X1069394Y969410D01*
X1069364Y969274D01*
X1069329Y969140D01*
X1069327Y969112D01*
X1069324Y969100D01*
X1069325Y969079D01*
X1069322Y969033D01*
X1069321Y969028D01*
X1069322Y969024D01*
X1069319Y968979D01*
X1069319Y759685D01*
X1069336Y759546D01*
X1069349Y759408D01*
X1069356Y759389D01*
X1069359Y759369D01*
X1069410Y759239D01*
X1069457Y759109D01*
X1069468Y759092D01*
X1069476Y759073D01*
X1069557Y758961D01*
X1069636Y758845D01*
X1069651Y758832D01*
X1069662Y758816D01*
X1069770Y758727D01*
X1069874Y758635D01*
X1069892Y758626D01*
X1069907Y758613D01*
X1070033Y758554D01*
X1070157Y758491D01*
X1070177Y758486D01*
X1070195Y758478D01*
X1070332Y758451D01*
X1070468Y758421D01*
X1070488Y758422D01*
X1070507Y758418D01*
X1070646Y758426D01*
X1070786Y758431D01*
X1070805Y758436D01*
X1070825Y758438D01*
X1070921Y758469D01*
X1088933Y758469D01*
X1090719Y756683D01*
X1090719Y738917D01*
X1088933Y737131D01*
X1071167Y737131D01*
X1070601Y737698D01*
X1070506Y737771D01*
X1070417Y737850D01*
X1070381Y737868D01*
X1070349Y737893D01*
X1070240Y737940D01*
X1070134Y737994D01*
X1070095Y738003D01*
X1070057Y738019D01*
X1069940Y738038D01*
X1069824Y738064D01*
X1069783Y738063D01*
X1069743Y738069D01*
X1069625Y738058D01*
X1069506Y738054D01*
X1069467Y738043D01*
X1069427Y738039D01*
X1069315Y737999D01*
X1069200Y737966D01*
X1069166Y737945D01*
X1069127Y737932D01*
X1069029Y737865D01*
X1068926Y737804D01*
X1068881Y737765D01*
X1068864Y737753D01*
X1068851Y737738D01*
X1068806Y737698D01*
X1066789Y735681D01*
X758211Y735681D01*
X755681Y738211D01*
X755681Y995682D01*
X755666Y995800D01*
X755659Y995919D01*
X755646Y995957D01*
X755641Y995998D01*
X755598Y996108D01*
X755561Y996221D01*
X755539Y996256D01*
X755524Y996293D01*
X755455Y996389D01*
X755391Y996490D01*
X755361Y996518D01*
X755338Y996551D01*
X755246Y996627D01*
X755159Y996708D01*
X755124Y996728D01*
X755093Y996753D01*
X754985Y996804D01*
X754881Y996862D01*
X754841Y996872D01*
X754805Y996889D01*
X754688Y996911D01*
X754573Y996941D01*
X754513Y996945D01*
X754493Y996949D01*
X754472Y996947D01*
X754412Y996951D01*
X467520Y996951D01*
X467402Y996936D01*
X467283Y996929D01*
X467245Y996916D01*
X467204Y996911D01*
X467094Y996868D01*
X466981Y996831D01*
X466946Y996809D01*
X466909Y996794D01*
X466813Y996725D01*
X466712Y996661D01*
X466684Y996631D01*
X466651Y996608D01*
X466575Y996516D01*
X466494Y996429D01*
X466474Y996394D01*
X466449Y996363D01*
X466398Y996255D01*
X466340Y996151D01*
X466330Y996111D01*
X466313Y996075D01*
X466291Y995958D01*
X466261Y995843D01*
X466257Y995783D01*
X466253Y995763D01*
X466255Y995742D01*
X466251Y995682D01*
X466251Y734220D01*
X466263Y734122D01*
X466266Y734023D01*
X466283Y733965D01*
X466291Y733904D01*
X466327Y733812D01*
X466355Y733717D01*
X466385Y733665D01*
X466408Y733609D01*
X466466Y733529D01*
X466516Y733443D01*
X466582Y733368D01*
X466594Y733351D01*
X466604Y733344D01*
X466623Y733323D01*
X509963Y689983D01*
X510041Y689922D01*
X510113Y689854D01*
X510166Y689825D01*
X510214Y689788D01*
X510305Y689748D01*
X510391Y689700D01*
X510450Y689685D01*
X510506Y689661D01*
X510604Y689646D01*
X510699Y689621D01*
X510799Y689615D01*
X510820Y689611D01*
X510832Y689613D01*
X510860Y689611D01*
X583674Y689611D01*
X595631Y677654D01*
X595631Y452646D01*
X576054Y433069D01*
X497840Y433069D01*
X497742Y433057D01*
X497643Y433054D01*
X497585Y433037D01*
X497524Y433029D01*
X497432Y432993D01*
X497337Y432965D01*
X497285Y432935D01*
X497229Y432912D01*
X497149Y432854D01*
X497063Y432804D01*
X496988Y432738D01*
X496971Y432726D01*
X496964Y432716D01*
X496943Y432698D01*
X466463Y402218D01*
X466402Y402139D01*
X466334Y402067D01*
X466305Y402014D01*
X466268Y401966D01*
X466228Y401875D01*
X466180Y401788D01*
X466165Y401730D01*
X466141Y401674D01*
X466126Y401576D01*
X466101Y401480D01*
X466095Y401381D01*
X466091Y401360D01*
X466093Y401348D01*
X466091Y401320D01*
X466244Y4317D01*
X466259Y4200D01*
X466267Y4081D01*
X466279Y4042D01*
X466284Y4002D01*
X466328Y3891D01*
X466365Y3779D01*
X466386Y3744D01*
X466401Y3706D01*
X466471Y3610D01*
X466535Y3510D01*
X466564Y3482D01*
X466588Y3449D01*
X466680Y3373D01*
X466766Y3292D01*
X466802Y3272D01*
X466833Y3246D01*
X466941Y3196D01*
X467045Y3138D01*
X467084Y3128D01*
X467121Y3111D01*
X467238Y3089D01*
X467353Y3059D01*
X467413Y3055D01*
X467433Y3051D01*
X467454Y3053D01*
X467513Y3049D01*
X1595682Y3049D01*
X1595800Y3064D01*
G37*
%LPC*%
G36*
X546851Y10921D02*
X546851Y10921D01*
X539241Y18531D01*
X539241Y25242D01*
X539224Y25380D01*
X539211Y25518D01*
X539204Y25537D01*
X539201Y25558D01*
X539150Y25687D01*
X539103Y25818D01*
X539092Y25835D01*
X539084Y25853D01*
X539003Y25966D01*
X538925Y26081D01*
X538909Y26094D01*
X538898Y26111D01*
X538790Y26199D01*
X538686Y26291D01*
X538668Y26301D01*
X538653Y26313D01*
X538527Y26373D01*
X538403Y26436D01*
X538383Y26440D01*
X538365Y26449D01*
X538228Y26475D01*
X538093Y26506D01*
X538072Y26505D01*
X538053Y26509D01*
X537914Y26500D01*
X537775Y26496D01*
X537755Y26490D01*
X537735Y26489D01*
X537603Y26446D01*
X537469Y26408D01*
X537452Y26397D01*
X537433Y26391D01*
X537315Y26317D01*
X537195Y26246D01*
X537174Y26227D01*
X537164Y26221D01*
X537150Y26206D01*
X537075Y26140D01*
X536148Y25213D01*
X532600Y23743D01*
X528760Y23743D01*
X525212Y25213D01*
X522497Y27928D01*
X521027Y31476D01*
X521027Y48524D01*
X522497Y52072D01*
X525212Y54787D01*
X528760Y56257D01*
X532600Y56257D01*
X536148Y54787D01*
X537075Y53860D01*
X537184Y53776D01*
X537291Y53687D01*
X537310Y53678D01*
X537326Y53665D01*
X537453Y53610D01*
X537579Y53551D01*
X537599Y53547D01*
X537618Y53539D01*
X537756Y53517D01*
X537892Y53491D01*
X537912Y53492D01*
X537932Y53489D01*
X538071Y53502D01*
X538209Y53511D01*
X538228Y53517D01*
X538248Y53519D01*
X538380Y53566D01*
X538511Y53609D01*
X538529Y53620D01*
X538548Y53627D01*
X538663Y53705D01*
X538780Y53779D01*
X538794Y53794D01*
X538811Y53805D01*
X538903Y53909D01*
X538998Y54011D01*
X539008Y54029D01*
X539021Y54044D01*
X539084Y54167D01*
X539152Y54289D01*
X539157Y54309D01*
X539166Y54327D01*
X539196Y54463D01*
X539231Y54597D01*
X539233Y54625D01*
X539236Y54637D01*
X539235Y54658D01*
X539241Y54758D01*
X539241Y75449D01*
X575700Y111907D01*
X575760Y111985D01*
X575828Y112058D01*
X575857Y112111D01*
X575894Y112158D01*
X575934Y112249D01*
X575982Y112336D01*
X575997Y112395D01*
X576021Y112450D01*
X576036Y112548D01*
X576061Y112644D01*
X576067Y112744D01*
X576071Y112764D01*
X576069Y112777D01*
X576071Y112805D01*
X576071Y126213D01*
X576059Y126311D01*
X576056Y126410D01*
X576039Y126468D01*
X576031Y126528D01*
X575995Y126621D01*
X575967Y126716D01*
X575937Y126768D01*
X575914Y126824D01*
X575856Y126904D01*
X575806Y126990D01*
X575740Y127065D01*
X575728Y127081D01*
X575718Y127089D01*
X575700Y127110D01*
X574599Y128211D01*
X573559Y130721D01*
X573559Y133439D01*
X574599Y135949D01*
X576521Y137871D01*
X579031Y138911D01*
X581749Y138911D01*
X584259Y137871D01*
X586181Y135949D01*
X587221Y133439D01*
X587221Y130721D01*
X586181Y128211D01*
X585080Y127110D01*
X585020Y127032D01*
X584952Y126960D01*
X584923Y126907D01*
X584886Y126859D01*
X584846Y126768D01*
X584798Y126682D01*
X584783Y126623D01*
X584759Y126567D01*
X584744Y126469D01*
X584719Y126374D01*
X584713Y126274D01*
X584709Y126253D01*
X584711Y126241D01*
X584709Y126213D01*
X584709Y108701D01*
X576473Y100465D01*
X576388Y100356D01*
X576299Y100249D01*
X576291Y100230D01*
X576278Y100214D01*
X576223Y100086D01*
X576164Y99961D01*
X576160Y99941D01*
X576152Y99922D01*
X576130Y99784D01*
X576104Y99648D01*
X576105Y99628D01*
X576102Y99608D01*
X576115Y99469D01*
X576124Y99331D01*
X576130Y99312D01*
X576132Y99292D01*
X576179Y99160D01*
X576222Y99029D01*
X576232Y99011D01*
X576239Y98992D01*
X576317Y98877D01*
X576392Y98760D01*
X576407Y98746D01*
X576418Y98729D01*
X576522Y98637D01*
X576623Y98542D01*
X576641Y98532D01*
X576656Y98519D01*
X576780Y98455D01*
X576902Y98388D01*
X576922Y98383D01*
X576940Y98374D01*
X577075Y98344D01*
X577210Y98309D01*
X577238Y98307D01*
X577250Y98304D01*
X577270Y98305D01*
X577371Y98299D01*
X612365Y98299D01*
X612464Y98311D01*
X612563Y98314D01*
X612621Y98331D01*
X612681Y98339D01*
X612773Y98375D01*
X612868Y98403D01*
X612920Y98433D01*
X612977Y98456D01*
X613057Y98514D01*
X613142Y98564D01*
X613217Y98630D01*
X613234Y98642D01*
X613242Y98652D01*
X613263Y98670D01*
X635390Y120797D01*
X635450Y120875D01*
X635518Y120948D01*
X635547Y121001D01*
X635584Y121048D01*
X635624Y121139D01*
X635672Y121226D01*
X635687Y121285D01*
X635711Y121340D01*
X635726Y121438D01*
X635751Y121534D01*
X635757Y121634D01*
X635761Y121654D01*
X635759Y121667D01*
X635761Y121695D01*
X635761Y157705D01*
X635749Y157804D01*
X635746Y157903D01*
X635729Y157961D01*
X635721Y158021D01*
X635685Y158113D01*
X635657Y158208D01*
X635627Y158260D01*
X635604Y158317D01*
X635546Y158397D01*
X635496Y158482D01*
X635430Y158557D01*
X635418Y158574D01*
X635408Y158582D01*
X635390Y158603D01*
X631043Y162950D01*
X630965Y163010D01*
X630892Y163078D01*
X630839Y163107D01*
X630792Y163144D01*
X630701Y163184D01*
X630614Y163232D01*
X630555Y163247D01*
X630500Y163271D01*
X630402Y163286D01*
X630306Y163311D01*
X630206Y163317D01*
X630186Y163321D01*
X630173Y163319D01*
X630145Y163321D01*
X590031Y163321D01*
X587130Y166223D01*
X585605Y167747D01*
X585496Y167832D01*
X585389Y167921D01*
X585370Y167929D01*
X585354Y167942D01*
X585226Y167997D01*
X585101Y168056D01*
X585081Y168060D01*
X585062Y168068D01*
X584924Y168090D01*
X584788Y168116D01*
X584768Y168115D01*
X584748Y168118D01*
X584609Y168105D01*
X584471Y168096D01*
X584452Y168090D01*
X584432Y168088D01*
X584300Y168041D01*
X584169Y167998D01*
X584151Y167988D01*
X584132Y167981D01*
X584017Y167903D01*
X583900Y167828D01*
X583886Y167813D01*
X583869Y167802D01*
X583777Y167698D01*
X583682Y167597D01*
X583672Y167579D01*
X583659Y167564D01*
X583595Y167440D01*
X583528Y167318D01*
X583523Y167298D01*
X583514Y167280D01*
X583484Y167145D01*
X583449Y167010D01*
X583447Y166982D01*
X583444Y166970D01*
X583445Y166950D01*
X583439Y166849D01*
X583439Y154715D01*
X583451Y154616D01*
X583454Y154517D01*
X583471Y154459D01*
X583479Y154399D01*
X583515Y154307D01*
X583543Y154212D01*
X583573Y154160D01*
X583596Y154103D01*
X583654Y154023D01*
X583704Y153938D01*
X583770Y153863D01*
X583782Y153846D01*
X583792Y153838D01*
X583810Y153817D01*
X586237Y151391D01*
X586315Y151330D01*
X586387Y151262D01*
X586440Y151233D01*
X586488Y151196D01*
X586579Y151156D01*
X586666Y151108D01*
X586725Y151093D01*
X586780Y151069D01*
X586878Y151054D01*
X586974Y151029D01*
X587074Y151023D01*
X587094Y151019D01*
X587107Y151021D01*
X587135Y151019D01*
X598653Y151019D01*
X598751Y151031D01*
X598850Y151034D01*
X598908Y151051D01*
X598968Y151059D01*
X599061Y151095D01*
X599156Y151123D01*
X599208Y151153D01*
X599264Y151176D01*
X599344Y151234D01*
X599430Y151284D01*
X599505Y151350D01*
X599521Y151362D01*
X599529Y151372D01*
X599550Y151391D01*
X600651Y152491D01*
X603161Y153531D01*
X605879Y153531D01*
X608389Y152491D01*
X610311Y150569D01*
X611351Y148059D01*
X611351Y145341D01*
X610311Y142831D01*
X608389Y140909D01*
X605879Y139869D01*
X603161Y139869D01*
X600651Y140909D01*
X599550Y142010D01*
X599472Y142070D01*
X599400Y142138D01*
X599347Y142167D01*
X599299Y142204D01*
X599208Y142244D01*
X599122Y142292D01*
X599063Y142307D01*
X599007Y142331D01*
X598909Y142346D01*
X598814Y142371D01*
X598714Y142377D01*
X598693Y142381D01*
X598681Y142380D01*
X598653Y142381D01*
X583031Y142381D01*
X574801Y150611D01*
X574801Y230389D01*
X661151Y316739D01*
X1077185Y316739D01*
X1077284Y316751D01*
X1077383Y316754D01*
X1077441Y316771D01*
X1077501Y316779D01*
X1077593Y316815D01*
X1077688Y316843D01*
X1077740Y316873D01*
X1077797Y316896D01*
X1077877Y316954D01*
X1077962Y317004D01*
X1078037Y317070D01*
X1078054Y317082D01*
X1078062Y317092D01*
X1078083Y317110D01*
X1133230Y372257D01*
X1133290Y372335D01*
X1133358Y372408D01*
X1133387Y372461D01*
X1133424Y372508D01*
X1133464Y372599D01*
X1133512Y372686D01*
X1133527Y372745D01*
X1133551Y372800D01*
X1133566Y372898D01*
X1133591Y372994D01*
X1133597Y373094D01*
X1133601Y373114D01*
X1133599Y373127D01*
X1133601Y373155D01*
X1133601Y664729D01*
X1136503Y667630D01*
X1150219Y681347D01*
X1150304Y681456D01*
X1150393Y681563D01*
X1150401Y681582D01*
X1150414Y681598D01*
X1150469Y681726D01*
X1150528Y681851D01*
X1150532Y681871D01*
X1150540Y681890D01*
X1150562Y682028D01*
X1150588Y682164D01*
X1150587Y682184D01*
X1150590Y682204D01*
X1150577Y682343D01*
X1150568Y682481D01*
X1150562Y682500D01*
X1150560Y682520D01*
X1150513Y682652D01*
X1150470Y682783D01*
X1150460Y682801D01*
X1150453Y682820D01*
X1150375Y682935D01*
X1150300Y683052D01*
X1150285Y683066D01*
X1150274Y683083D01*
X1150170Y683175D01*
X1150069Y683270D01*
X1150051Y683280D01*
X1150036Y683293D01*
X1149912Y683356D01*
X1149790Y683424D01*
X1149770Y683429D01*
X1149752Y683438D01*
X1149617Y683468D01*
X1149482Y683503D01*
X1149454Y683505D01*
X1149442Y683508D01*
X1149422Y683507D01*
X1149321Y683513D01*
X953617Y683513D01*
X923537Y713594D01*
X923459Y713654D01*
X923387Y713722D01*
X923334Y713751D01*
X923286Y713788D01*
X923195Y713828D01*
X923108Y713876D01*
X923050Y713891D01*
X922994Y713915D01*
X922896Y713930D01*
X922800Y713955D01*
X922700Y713961D01*
X922680Y713965D01*
X922668Y713963D01*
X922640Y713965D01*
X671847Y713965D01*
X635761Y750051D01*
X635761Y876525D01*
X635749Y876624D01*
X635746Y876723D01*
X635729Y876781D01*
X635721Y876841D01*
X635685Y876933D01*
X635657Y877028D01*
X635627Y877080D01*
X635604Y877137D01*
X635546Y877217D01*
X635496Y877302D01*
X635430Y877377D01*
X635418Y877394D01*
X635408Y877402D01*
X635390Y877423D01*
X633375Y879438D01*
X633297Y879498D01*
X633224Y879566D01*
X633171Y879595D01*
X633124Y879632D01*
X633033Y879672D01*
X632946Y879720D01*
X632887Y879735D01*
X632832Y879759D01*
X632734Y879774D01*
X632638Y879799D01*
X632538Y879805D01*
X632518Y879809D01*
X632505Y879807D01*
X632477Y879809D01*
X630921Y879809D01*
X628411Y880849D01*
X626489Y882771D01*
X625449Y885281D01*
X625449Y887999D01*
X626489Y890509D01*
X628411Y892431D01*
X630921Y893471D01*
X633639Y893471D01*
X636149Y892431D01*
X638071Y890509D01*
X639111Y887999D01*
X639111Y886443D01*
X639123Y886344D01*
X639126Y886245D01*
X639132Y886225D01*
X639133Y886210D01*
X639145Y886174D01*
X639151Y886127D01*
X639187Y886035D01*
X639215Y885940D01*
X639228Y885917D01*
X639231Y885907D01*
X639248Y885880D01*
X639268Y885831D01*
X639326Y885751D01*
X639376Y885666D01*
X639442Y885591D01*
X639454Y885574D01*
X639464Y885566D01*
X639482Y885545D01*
X644399Y880629D01*
X644399Y754155D01*
X644411Y754056D01*
X644414Y753957D01*
X644431Y753899D01*
X644439Y753839D01*
X644475Y753747D01*
X644503Y753652D01*
X644533Y753600D01*
X644556Y753543D01*
X644614Y753463D01*
X644664Y753378D01*
X644730Y753303D01*
X644742Y753286D01*
X644752Y753278D01*
X644770Y753257D01*
X675053Y722974D01*
X675131Y722914D01*
X675204Y722846D01*
X675257Y722817D01*
X675304Y722780D01*
X675395Y722740D01*
X675482Y722692D01*
X675541Y722677D01*
X675596Y722653D01*
X675694Y722638D01*
X675790Y722613D01*
X675890Y722607D01*
X675910Y722603D01*
X675923Y722605D01*
X675951Y722603D01*
X926743Y722603D01*
X956823Y692522D01*
X956902Y692462D01*
X956974Y692394D01*
X957027Y692365D01*
X957075Y692328D01*
X957166Y692288D01*
X957252Y692240D01*
X957311Y692225D01*
X957367Y692201D01*
X957465Y692186D01*
X957560Y692161D01*
X957660Y692155D01*
X957681Y692151D01*
X957693Y692153D01*
X957721Y692151D01*
X1265792Y692151D01*
X1265890Y692163D01*
X1265989Y692166D01*
X1266047Y692183D01*
X1266107Y692191D01*
X1266199Y692227D01*
X1266294Y692255D01*
X1266346Y692285D01*
X1266403Y692308D01*
X1266483Y692366D01*
X1266568Y692416D01*
X1266644Y692482D01*
X1266660Y692494D01*
X1266668Y692504D01*
X1266689Y692522D01*
X1291345Y717178D01*
X1291405Y717256D01*
X1291473Y717328D01*
X1291502Y717381D01*
X1291539Y717429D01*
X1291579Y717520D01*
X1291627Y717607D01*
X1291642Y717665D01*
X1291666Y717721D01*
X1291681Y717819D01*
X1291706Y717915D01*
X1291712Y718015D01*
X1291716Y718035D01*
X1291714Y718047D01*
X1291716Y718075D01*
X1291716Y738114D01*
X1291699Y738252D01*
X1291686Y738391D01*
X1291679Y738410D01*
X1291676Y738430D01*
X1291625Y738559D01*
X1291578Y738690D01*
X1291567Y738707D01*
X1291559Y738725D01*
X1291478Y738838D01*
X1291400Y738953D01*
X1291384Y738966D01*
X1291373Y738983D01*
X1291266Y739071D01*
X1291161Y739163D01*
X1291143Y739173D01*
X1291128Y739186D01*
X1291002Y739245D01*
X1290878Y739308D01*
X1290858Y739313D01*
X1290840Y739321D01*
X1290704Y739347D01*
X1290568Y739378D01*
X1290547Y739377D01*
X1290528Y739381D01*
X1290389Y739372D01*
X1290250Y739368D01*
X1290230Y739362D01*
X1290210Y739361D01*
X1290078Y739318D01*
X1289944Y739280D01*
X1289927Y739269D01*
X1289908Y739263D01*
X1289790Y739189D01*
X1289670Y739118D01*
X1289649Y739099D01*
X1289639Y739093D01*
X1289625Y739078D01*
X1289549Y739012D01*
X1289293Y738755D01*
X1285372Y737131D01*
X1281128Y737131D01*
X1277207Y738755D01*
X1274205Y741757D01*
X1272581Y745678D01*
X1272581Y749922D01*
X1274205Y753843D01*
X1277207Y756845D01*
X1281128Y758469D01*
X1285372Y758469D01*
X1289293Y756845D01*
X1289549Y756588D01*
X1289659Y756503D01*
X1289766Y756414D01*
X1289785Y756406D01*
X1289801Y756393D01*
X1289928Y756338D01*
X1290054Y756279D01*
X1290074Y756275D01*
X1290093Y756267D01*
X1290230Y756245D01*
X1290367Y756219D01*
X1290387Y756220D01*
X1290407Y756217D01*
X1290546Y756230D01*
X1290684Y756239D01*
X1290703Y756245D01*
X1290723Y756247D01*
X1290855Y756294D01*
X1290986Y756337D01*
X1291003Y756348D01*
X1291023Y756355D01*
X1291138Y756433D01*
X1291255Y756507D01*
X1291269Y756522D01*
X1291286Y756533D01*
X1291378Y756637D01*
X1291473Y756739D01*
X1291483Y756756D01*
X1291496Y756772D01*
X1291560Y756896D01*
X1291627Y757017D01*
X1291632Y757037D01*
X1291641Y757055D01*
X1291671Y757191D01*
X1291706Y757325D01*
X1291708Y757353D01*
X1291711Y757365D01*
X1291710Y757386D01*
X1291716Y757486D01*
X1291716Y769504D01*
X1306311Y784099D01*
X1378469Y784099D01*
X1389169Y773399D01*
X1389169Y758407D01*
X1389172Y758378D01*
X1389170Y758348D01*
X1389192Y758220D01*
X1389209Y758091D01*
X1389219Y758064D01*
X1389224Y758035D01*
X1389278Y757916D01*
X1389326Y757796D01*
X1389343Y757772D01*
X1389355Y757745D01*
X1389436Y757643D01*
X1389512Y757538D01*
X1389535Y757520D01*
X1389554Y757496D01*
X1389657Y757418D01*
X1389757Y757336D01*
X1389784Y757323D01*
X1389808Y757305D01*
X1389952Y757234D01*
X1390893Y756845D01*
X1393895Y753843D01*
X1395519Y749922D01*
X1395519Y745678D01*
X1393895Y741757D01*
X1390893Y738755D01*
X1386972Y737131D01*
X1382728Y737131D01*
X1378807Y738755D01*
X1375805Y741757D01*
X1374181Y745678D01*
X1374181Y749922D01*
X1375805Y753843D01*
X1378807Y756845D01*
X1379748Y757234D01*
X1379773Y757249D01*
X1379801Y757258D01*
X1379911Y757327D01*
X1380024Y757392D01*
X1380045Y757412D01*
X1380070Y757428D01*
X1380159Y757523D01*
X1380252Y757613D01*
X1380268Y757638D01*
X1380288Y757660D01*
X1380351Y757774D01*
X1380419Y757884D01*
X1380427Y757912D01*
X1380442Y757938D01*
X1380474Y758064D01*
X1380512Y758188D01*
X1380514Y758218D01*
X1380521Y758246D01*
X1380531Y758407D01*
X1380531Y769295D01*
X1380519Y769394D01*
X1380516Y769493D01*
X1380499Y769551D01*
X1380491Y769611D01*
X1380455Y769703D01*
X1380427Y769798D01*
X1380397Y769850D01*
X1380374Y769907D01*
X1380316Y769987D01*
X1380266Y770072D01*
X1380200Y770147D01*
X1380188Y770164D01*
X1380178Y770172D01*
X1380160Y770193D01*
X1375263Y775090D01*
X1375185Y775150D01*
X1375112Y775218D01*
X1375059Y775247D01*
X1375012Y775284D01*
X1374921Y775324D01*
X1374834Y775372D01*
X1374775Y775387D01*
X1374720Y775411D01*
X1374622Y775426D01*
X1374526Y775451D01*
X1374426Y775457D01*
X1374406Y775461D01*
X1374393Y775459D01*
X1374365Y775461D01*
X1310415Y775461D01*
X1310316Y775449D01*
X1310217Y775446D01*
X1310159Y775429D01*
X1310099Y775421D01*
X1310007Y775385D01*
X1309912Y775357D01*
X1309860Y775327D01*
X1309803Y775304D01*
X1309723Y775246D01*
X1309638Y775196D01*
X1309563Y775130D01*
X1309546Y775118D01*
X1309538Y775108D01*
X1309517Y775090D01*
X1300725Y766298D01*
X1300665Y766220D01*
X1300597Y766147D01*
X1300568Y766094D01*
X1300531Y766047D01*
X1300491Y765956D01*
X1300443Y765869D01*
X1300428Y765810D01*
X1300404Y765755D01*
X1300389Y765657D01*
X1300364Y765561D01*
X1300358Y765461D01*
X1300354Y765441D01*
X1300356Y765428D01*
X1300354Y765400D01*
X1300354Y757656D01*
X1300371Y757518D01*
X1300384Y757379D01*
X1300391Y757360D01*
X1300394Y757340D01*
X1300445Y757211D01*
X1300492Y757080D01*
X1300503Y757063D01*
X1300511Y757045D01*
X1300592Y756932D01*
X1300670Y756817D01*
X1300686Y756804D01*
X1300697Y756787D01*
X1300805Y756698D01*
X1300909Y756607D01*
X1300927Y756597D01*
X1300942Y756584D01*
X1301068Y756525D01*
X1301192Y756462D01*
X1301212Y756458D01*
X1301230Y756449D01*
X1301367Y756423D01*
X1301502Y756392D01*
X1301523Y756393D01*
X1301542Y756389D01*
X1301681Y756398D01*
X1301820Y756402D01*
X1301840Y756408D01*
X1301860Y756409D01*
X1301992Y756452D01*
X1302126Y756490D01*
X1302143Y756501D01*
X1302162Y756507D01*
X1302280Y756581D01*
X1302400Y756652D01*
X1302421Y756671D01*
X1302431Y756677D01*
X1302445Y756692D01*
X1302521Y756758D01*
X1302607Y756845D01*
X1306528Y758469D01*
X1310772Y758469D01*
X1314693Y756845D01*
X1317695Y753843D01*
X1319319Y749922D01*
X1319319Y745678D01*
X1317695Y741757D01*
X1314693Y738755D01*
X1313752Y738366D01*
X1313727Y738351D01*
X1313699Y738342D01*
X1313589Y738273D01*
X1313476Y738208D01*
X1313455Y738188D01*
X1313430Y738172D01*
X1313341Y738077D01*
X1313248Y737987D01*
X1313232Y737962D01*
X1313212Y737940D01*
X1313149Y737826D01*
X1313081Y737716D01*
X1313073Y737688D01*
X1313058Y737662D01*
X1313026Y737536D01*
X1312988Y737412D01*
X1312986Y737382D01*
X1312979Y737354D01*
X1312969Y737193D01*
X1312969Y728935D01*
X1312986Y728797D01*
X1312999Y728658D01*
X1313006Y728639D01*
X1313009Y728619D01*
X1313060Y728490D01*
X1313107Y728359D01*
X1313118Y728342D01*
X1313126Y728324D01*
X1313207Y728211D01*
X1313285Y728096D01*
X1313301Y728083D01*
X1313312Y728066D01*
X1313420Y727977D01*
X1313524Y727885D01*
X1313542Y727876D01*
X1313557Y727863D01*
X1313683Y727804D01*
X1313807Y727741D01*
X1313827Y727736D01*
X1313845Y727728D01*
X1313981Y727702D01*
X1314117Y727671D01*
X1314138Y727672D01*
X1314157Y727668D01*
X1314296Y727677D01*
X1314435Y727681D01*
X1314455Y727687D01*
X1314475Y727688D01*
X1314607Y727731D01*
X1314741Y727769D01*
X1314758Y727780D01*
X1314777Y727786D01*
X1314895Y727860D01*
X1315015Y727931D01*
X1315036Y727949D01*
X1315046Y727956D01*
X1315060Y727971D01*
X1315135Y728037D01*
X1317857Y730759D01*
X1323565Y730759D01*
X1323664Y730771D01*
X1323763Y730774D01*
X1323821Y730791D01*
X1323881Y730799D01*
X1323973Y730835D01*
X1324068Y730863D01*
X1324120Y730893D01*
X1324177Y730916D01*
X1324257Y730974D01*
X1324342Y731024D01*
X1324417Y731090D01*
X1324434Y731102D01*
X1324442Y731112D01*
X1324463Y731130D01*
X1329360Y736027D01*
X1329420Y736105D01*
X1329488Y736177D01*
X1329517Y736230D01*
X1329554Y736278D01*
X1329594Y736369D01*
X1329642Y736456D01*
X1329657Y736515D01*
X1329681Y736570D01*
X1329696Y736668D01*
X1329721Y736764D01*
X1329727Y736864D01*
X1329731Y736884D01*
X1329729Y736897D01*
X1329731Y736925D01*
X1329731Y737193D01*
X1329728Y737222D01*
X1329730Y737252D01*
X1329708Y737380D01*
X1329691Y737509D01*
X1329681Y737536D01*
X1329676Y737565D01*
X1329622Y737684D01*
X1329574Y737804D01*
X1329557Y737828D01*
X1329545Y737855D01*
X1329464Y737957D01*
X1329388Y738062D01*
X1329365Y738080D01*
X1329346Y738104D01*
X1329243Y738182D01*
X1329143Y738264D01*
X1329116Y738277D01*
X1329092Y738295D01*
X1328948Y738366D01*
X1328007Y738755D01*
X1325005Y741757D01*
X1323381Y745678D01*
X1323381Y749922D01*
X1325005Y753843D01*
X1328007Y756845D01*
X1331928Y758469D01*
X1336172Y758469D01*
X1340093Y756845D01*
X1343095Y753843D01*
X1344719Y749922D01*
X1344719Y745678D01*
X1343095Y741757D01*
X1340093Y738755D01*
X1339152Y738366D01*
X1339127Y738351D01*
X1339099Y738342D01*
X1338989Y738273D01*
X1338876Y738208D01*
X1338855Y738188D01*
X1338830Y738172D01*
X1338741Y738077D01*
X1338648Y737987D01*
X1338632Y737962D01*
X1338612Y737940D01*
X1338549Y737826D01*
X1338481Y737716D01*
X1338473Y737688D01*
X1338458Y737662D01*
X1338426Y737536D01*
X1338388Y737412D01*
X1338386Y737382D01*
X1338379Y737354D01*
X1338369Y737193D01*
X1338369Y732821D01*
X1335467Y729920D01*
X1330570Y725023D01*
X1327669Y722121D01*
X1321960Y722121D01*
X1321862Y722109D01*
X1321763Y722106D01*
X1321705Y722089D01*
X1321645Y722081D01*
X1321553Y722045D01*
X1321458Y722017D01*
X1321406Y721987D01*
X1321349Y721964D01*
X1321269Y721906D01*
X1321184Y721856D01*
X1321108Y721790D01*
X1321092Y721778D01*
X1321084Y721768D01*
X1321063Y721750D01*
X1273683Y674369D01*
X1162448Y674369D01*
X1162350Y674357D01*
X1162251Y674354D01*
X1162193Y674337D01*
X1162133Y674329D01*
X1162041Y674293D01*
X1161946Y674265D01*
X1161894Y674235D01*
X1161837Y674212D01*
X1161757Y674154D01*
X1161672Y674104D01*
X1161596Y674038D01*
X1161580Y674026D01*
X1161572Y674016D01*
X1161551Y673998D01*
X1147182Y659629D01*
X1147122Y659551D01*
X1147054Y659479D01*
X1147025Y659426D01*
X1146988Y659378D01*
X1146948Y659287D01*
X1146900Y659200D01*
X1146885Y659142D01*
X1146861Y659086D01*
X1146846Y658988D01*
X1146821Y658892D01*
X1146815Y658792D01*
X1146811Y658772D01*
X1146813Y658760D01*
X1146811Y658732D01*
X1146811Y367157D01*
X1083183Y303529D01*
X667148Y303529D01*
X667050Y303517D01*
X666951Y303514D01*
X666893Y303497D01*
X666833Y303489D01*
X666741Y303453D01*
X666646Y303425D01*
X666594Y303395D01*
X666537Y303372D01*
X666457Y303314D01*
X666372Y303264D01*
X666296Y303198D01*
X666280Y303186D01*
X666272Y303176D01*
X666251Y303158D01*
X588382Y225289D01*
X588322Y225211D01*
X588254Y225139D01*
X588225Y225086D01*
X588188Y225038D01*
X588148Y224947D01*
X588100Y224860D01*
X588085Y224802D01*
X588061Y224746D01*
X588046Y224648D01*
X588021Y224552D01*
X588015Y224452D01*
X588011Y224432D01*
X588013Y224420D01*
X588011Y224392D01*
X588011Y178083D01*
X588023Y177984D01*
X588026Y177885D01*
X588043Y177827D01*
X588051Y177767D01*
X588087Y177675D01*
X588115Y177580D01*
X588145Y177528D01*
X588168Y177471D01*
X588226Y177391D01*
X588276Y177306D01*
X588342Y177231D01*
X588354Y177214D01*
X588364Y177206D01*
X588382Y177185D01*
X593237Y172330D01*
X593315Y172270D01*
X593387Y172202D01*
X593440Y172173D01*
X593488Y172136D01*
X593579Y172096D01*
X593666Y172048D01*
X593725Y172033D01*
X593780Y172009D01*
X593878Y171994D01*
X593974Y171969D01*
X594074Y171963D01*
X594094Y171959D01*
X594107Y171961D01*
X594135Y171959D01*
X634249Y171959D01*
X644399Y161809D01*
X644399Y117591D01*
X619370Y92563D01*
X616469Y89661D01*
X573815Y89661D01*
X573716Y89649D01*
X573617Y89646D01*
X573559Y89629D01*
X573499Y89621D01*
X573407Y89585D01*
X573312Y89557D01*
X573260Y89527D01*
X573203Y89504D01*
X573123Y89446D01*
X573038Y89396D01*
X572963Y89330D01*
X572946Y89318D01*
X572938Y89308D01*
X572917Y89290D01*
X560770Y77143D01*
X560710Y77064D01*
X560642Y76992D01*
X560613Y76939D01*
X560575Y76891D01*
X560536Y76801D01*
X560488Y76714D01*
X560473Y76655D01*
X560449Y76600D01*
X560434Y76502D01*
X560409Y76406D01*
X560402Y76306D01*
X560399Y76286D01*
X560400Y76273D01*
X560399Y76245D01*
X560399Y56111D01*
X560402Y56082D01*
X560400Y56052D01*
X560422Y55925D01*
X560438Y55796D01*
X560449Y55768D01*
X560454Y55739D01*
X560508Y55620D01*
X560556Y55500D01*
X560573Y55476D01*
X560585Y55449D01*
X560666Y55348D01*
X560742Y55243D01*
X560765Y55224D01*
X560784Y55201D01*
X560887Y55123D01*
X560987Y55040D01*
X561014Y55027D01*
X561038Y55010D01*
X561182Y54939D01*
X561548Y54787D01*
X564263Y52072D01*
X565733Y48524D01*
X565733Y31476D01*
X564263Y27928D01*
X561548Y25213D01*
X558000Y23743D01*
X554160Y23743D01*
X550612Y25213D01*
X550045Y25779D01*
X549936Y25864D01*
X549829Y25953D01*
X549810Y25962D01*
X549794Y25974D01*
X549666Y26030D01*
X549541Y26089D01*
X549521Y26093D01*
X549502Y26101D01*
X549364Y26123D01*
X549228Y26149D01*
X549208Y26147D01*
X549188Y26151D01*
X549049Y26137D01*
X548911Y26129D01*
X548892Y26123D01*
X548872Y26121D01*
X548741Y26074D01*
X548609Y26031D01*
X548591Y26020D01*
X548572Y26013D01*
X548457Y25935D01*
X548340Y25861D01*
X548326Y25846D01*
X548309Y25835D01*
X548217Y25730D01*
X548122Y25629D01*
X548112Y25611D01*
X548099Y25596D01*
X548036Y25472D01*
X547968Y25351D01*
X547963Y25331D01*
X547954Y25313D01*
X547924Y25177D01*
X547889Y25043D01*
X547887Y25015D01*
X547884Y25003D01*
X547885Y24982D01*
X547879Y24882D01*
X547879Y22635D01*
X547891Y22536D01*
X547894Y22437D01*
X547911Y22379D01*
X547919Y22319D01*
X547955Y22227D01*
X547983Y22132D01*
X548013Y22080D01*
X548036Y22023D01*
X548094Y21943D01*
X548144Y21858D01*
X548210Y21783D01*
X548222Y21766D01*
X548232Y21758D01*
X548250Y21737D01*
X550057Y19930D01*
X550135Y19870D01*
X550208Y19802D01*
X550261Y19773D01*
X550308Y19736D01*
X550399Y19696D01*
X550486Y19648D01*
X550545Y19633D01*
X550600Y19609D01*
X550698Y19594D01*
X550794Y19569D01*
X550894Y19563D01*
X550914Y19559D01*
X550927Y19561D01*
X550955Y19559D01*
X572995Y19559D01*
X573094Y19571D01*
X573193Y19574D01*
X573251Y19591D01*
X573311Y19599D01*
X573403Y19635D01*
X573498Y19663D01*
X573550Y19693D01*
X573607Y19716D01*
X573687Y19774D01*
X573772Y19824D01*
X573847Y19890D01*
X573864Y19902D01*
X573872Y19912D01*
X573893Y19930D01*
X576789Y22827D01*
X576850Y22905D01*
X576918Y22977D01*
X576947Y23030D01*
X576984Y23078D01*
X577024Y23169D01*
X577071Y23256D01*
X577087Y23314D01*
X577111Y23370D01*
X577126Y23468D01*
X577151Y23564D01*
X577157Y23664D01*
X577161Y23684D01*
X577159Y23697D01*
X577161Y23725D01*
X577161Y23889D01*
X577157Y23918D01*
X577160Y23948D01*
X577138Y24075D01*
X577121Y24204D01*
X577110Y24232D01*
X577105Y24261D01*
X577052Y24380D01*
X577004Y24500D01*
X576987Y24524D01*
X576975Y24551D01*
X576894Y24652D01*
X576817Y24757D01*
X576795Y24776D01*
X576776Y24799D01*
X576673Y24877D01*
X576572Y24960D01*
X576546Y24973D01*
X576522Y24990D01*
X576378Y25061D01*
X576012Y25213D01*
X573297Y27928D01*
X571827Y31476D01*
X571827Y48524D01*
X573297Y52072D01*
X576012Y54787D01*
X579560Y56257D01*
X583400Y56257D01*
X586948Y54787D01*
X589663Y52072D01*
X591133Y48524D01*
X591133Y31476D01*
X589663Y27928D01*
X586948Y25213D01*
X586582Y25061D01*
X586556Y25047D01*
X586528Y25038D01*
X586419Y24968D01*
X586306Y24904D01*
X586285Y24883D01*
X586260Y24868D01*
X586171Y24773D01*
X586078Y24683D01*
X586062Y24657D01*
X586042Y24636D01*
X585979Y24522D01*
X585911Y24411D01*
X585903Y24383D01*
X585888Y24357D01*
X585856Y24232D01*
X585818Y24108D01*
X585816Y24078D01*
X585809Y24049D01*
X585799Y23889D01*
X585799Y19621D01*
X577099Y10921D01*
X546851Y10921D01*
G37*
%LPD*%
%LPC*%
G36*
X1157823Y16939D02*
X1157823Y16939D01*
X1153062Y18911D01*
X1149417Y22556D01*
X1147445Y27317D01*
X1147445Y52283D01*
X1149417Y57044D01*
X1153062Y60689D01*
X1155298Y61615D01*
X1155323Y61629D01*
X1155351Y61638D01*
X1155461Y61708D01*
X1155574Y61772D01*
X1155595Y61793D01*
X1155620Y61809D01*
X1155709Y61903D01*
X1155802Y61993D01*
X1155818Y62019D01*
X1155838Y62040D01*
X1155901Y62154D01*
X1155969Y62265D01*
X1155977Y62293D01*
X1155992Y62319D01*
X1156024Y62444D01*
X1156062Y62569D01*
X1156064Y62598D01*
X1156071Y62627D01*
X1156081Y62787D01*
X1156081Y87769D01*
X1164071Y95759D01*
X1196565Y95759D01*
X1196664Y95771D01*
X1196763Y95774D01*
X1196821Y95791D01*
X1196881Y95799D01*
X1196973Y95835D01*
X1197068Y95863D01*
X1197120Y95893D01*
X1197177Y95916D01*
X1197257Y95974D01*
X1197342Y96024D01*
X1197417Y96090D01*
X1197434Y96102D01*
X1197442Y96112D01*
X1197463Y96130D01*
X1203530Y102197D01*
X1203590Y102275D01*
X1203658Y102348D01*
X1203687Y102401D01*
X1203724Y102448D01*
X1203764Y102539D01*
X1203812Y102626D01*
X1203827Y102685D01*
X1203851Y102740D01*
X1203866Y102838D01*
X1203891Y102934D01*
X1203897Y103034D01*
X1203901Y103054D01*
X1203899Y103067D01*
X1203901Y103095D01*
X1203901Y130473D01*
X1203889Y130571D01*
X1203886Y130670D01*
X1203869Y130728D01*
X1203861Y130788D01*
X1203825Y130880D01*
X1203797Y130976D01*
X1203767Y131028D01*
X1203744Y131084D01*
X1203686Y131164D01*
X1203636Y131250D01*
X1203570Y131325D01*
X1203558Y131341D01*
X1203548Y131349D01*
X1203529Y131370D01*
X1202429Y132471D01*
X1201389Y134981D01*
X1201389Y137699D01*
X1202429Y140209D01*
X1203530Y141310D01*
X1203590Y141388D01*
X1203658Y141460D01*
X1203687Y141513D01*
X1203724Y141561D01*
X1203764Y141652D01*
X1203812Y141738D01*
X1203827Y141797D01*
X1203851Y141853D01*
X1203866Y141951D01*
X1203891Y142046D01*
X1203897Y142146D01*
X1203901Y142167D01*
X1203899Y142179D01*
X1203901Y142207D01*
X1203901Y158449D01*
X1222491Y177039D01*
X1406000Y177039D01*
X1406098Y177051D01*
X1406197Y177054D01*
X1406255Y177071D01*
X1406315Y177079D01*
X1406407Y177115D01*
X1406502Y177143D01*
X1406554Y177173D01*
X1406611Y177196D01*
X1406691Y177254D01*
X1406776Y177304D01*
X1406852Y177370D01*
X1406868Y177382D01*
X1406876Y177392D01*
X1406897Y177410D01*
X1420758Y191271D01*
X1420818Y191349D01*
X1420886Y191421D01*
X1420906Y191458D01*
X1420930Y191486D01*
X1420938Y191504D01*
X1420952Y191522D01*
X1420992Y191613D01*
X1421040Y191700D01*
X1421051Y191743D01*
X1421065Y191774D01*
X1421069Y191790D01*
X1421079Y191814D01*
X1421094Y191912D01*
X1421119Y192008D01*
X1421123Y192077D01*
X1421125Y192086D01*
X1421125Y192096D01*
X1421125Y192108D01*
X1421129Y192128D01*
X1421127Y192140D01*
X1421129Y192168D01*
X1421129Y399005D01*
X1421117Y399104D01*
X1421114Y399203D01*
X1421097Y399261D01*
X1421089Y399321D01*
X1421053Y399413D01*
X1421025Y399508D01*
X1420995Y399560D01*
X1420972Y399617D01*
X1420914Y399697D01*
X1420864Y399782D01*
X1420798Y399857D01*
X1420786Y399874D01*
X1420776Y399882D01*
X1420758Y399903D01*
X1411331Y409330D01*
X1411253Y409390D01*
X1411181Y409458D01*
X1411128Y409487D01*
X1411080Y409524D01*
X1410989Y409564D01*
X1410902Y409612D01*
X1410843Y409627D01*
X1410788Y409651D01*
X1410690Y409666D01*
X1410594Y409691D01*
X1410494Y409697D01*
X1410474Y409701D01*
X1410461Y409699D01*
X1410433Y409701D01*
X1301231Y409701D01*
X1298330Y412603D01*
X1288903Y422030D01*
X1286001Y424931D01*
X1286001Y458953D01*
X1285989Y459051D01*
X1285986Y459150D01*
X1285969Y459208D01*
X1285961Y459268D01*
X1285925Y459361D01*
X1285897Y459456D01*
X1285867Y459508D01*
X1285844Y459564D01*
X1285786Y459644D01*
X1285736Y459730D01*
X1285670Y459805D01*
X1285658Y459821D01*
X1285648Y459829D01*
X1285630Y459850D01*
X1284529Y460951D01*
X1283489Y463461D01*
X1283489Y466179D01*
X1284529Y468689D01*
X1286451Y470611D01*
X1288961Y471651D01*
X1291679Y471651D01*
X1294189Y470611D01*
X1296111Y468689D01*
X1297151Y466179D01*
X1297151Y463461D01*
X1296111Y460951D01*
X1295010Y459850D01*
X1294950Y459772D01*
X1294882Y459700D01*
X1294853Y459647D01*
X1294816Y459599D01*
X1294776Y459508D01*
X1294728Y459422D01*
X1294713Y459363D01*
X1294689Y459307D01*
X1294674Y459209D01*
X1294649Y459114D01*
X1294643Y459014D01*
X1294639Y458993D01*
X1294641Y458981D01*
X1294639Y458953D01*
X1294639Y429035D01*
X1294651Y428936D01*
X1294654Y428837D01*
X1294671Y428779D01*
X1294679Y428719D01*
X1294715Y428627D01*
X1294743Y428532D01*
X1294773Y428480D01*
X1294796Y428423D01*
X1294854Y428343D01*
X1294904Y428258D01*
X1294970Y428183D01*
X1294982Y428166D01*
X1294992Y428158D01*
X1295010Y428137D01*
X1304437Y418710D01*
X1304515Y418650D01*
X1304587Y418582D01*
X1304640Y418553D01*
X1304688Y418516D01*
X1304779Y418476D01*
X1304866Y418428D01*
X1304925Y418413D01*
X1304980Y418389D01*
X1305078Y418374D01*
X1305174Y418349D01*
X1305274Y418343D01*
X1305294Y418339D01*
X1305307Y418341D01*
X1305335Y418339D01*
X1414537Y418339D01*
X1417438Y415437D01*
X1423535Y409341D01*
X1423644Y409256D01*
X1423751Y409167D01*
X1423770Y409159D01*
X1423786Y409146D01*
X1423914Y409091D01*
X1424039Y409032D01*
X1424059Y409028D01*
X1424078Y409020D01*
X1424216Y408998D01*
X1424352Y408972D01*
X1424372Y408973D01*
X1424392Y408970D01*
X1424531Y408983D01*
X1424669Y408992D01*
X1424688Y408998D01*
X1424708Y409000D01*
X1424840Y409047D01*
X1424971Y409090D01*
X1424989Y409100D01*
X1425008Y409107D01*
X1425123Y409185D01*
X1425240Y409260D01*
X1425254Y409275D01*
X1425271Y409286D01*
X1425363Y409390D01*
X1425458Y409491D01*
X1425468Y409509D01*
X1425481Y409524D01*
X1425545Y409648D01*
X1425612Y409770D01*
X1425617Y409790D01*
X1425626Y409808D01*
X1425656Y409943D01*
X1425691Y410078D01*
X1425693Y410106D01*
X1425696Y410118D01*
X1425695Y410138D01*
X1425701Y410239D01*
X1425701Y420595D01*
X1425689Y420694D01*
X1425686Y420793D01*
X1425669Y420851D01*
X1425661Y420911D01*
X1425625Y421003D01*
X1425597Y421098D01*
X1425567Y421150D01*
X1425544Y421207D01*
X1425486Y421287D01*
X1425436Y421372D01*
X1425370Y421447D01*
X1425358Y421464D01*
X1425348Y421472D01*
X1425330Y421493D01*
X1416157Y430666D01*
X1416079Y430726D01*
X1416007Y430794D01*
X1415954Y430823D01*
X1415906Y430860D01*
X1415815Y430900D01*
X1415728Y430948D01*
X1415669Y430963D01*
X1415614Y430987D01*
X1415516Y431002D01*
X1415420Y431027D01*
X1415320Y431033D01*
X1415300Y431037D01*
X1415287Y431035D01*
X1415259Y431037D01*
X1408242Y431037D01*
X1402587Y436692D01*
X1402587Y444688D01*
X1408242Y450343D01*
X1416238Y450343D01*
X1421893Y444688D01*
X1421893Y437671D01*
X1421905Y437572D01*
X1421908Y437473D01*
X1421925Y437415D01*
X1421933Y437355D01*
X1421969Y437263D01*
X1421997Y437168D01*
X1422027Y437116D01*
X1422050Y437059D01*
X1422108Y436979D01*
X1422158Y436894D01*
X1422224Y436819D01*
X1422236Y436802D01*
X1422246Y436794D01*
X1422264Y436773D01*
X1434339Y424699D01*
X1434339Y186171D01*
X1388650Y140483D01*
X1385749Y137581D01*
X1351858Y137581D01*
X1351760Y137569D01*
X1351661Y137566D01*
X1351603Y137549D01*
X1351542Y137541D01*
X1351450Y137505D01*
X1351355Y137477D01*
X1351303Y137447D01*
X1351247Y137424D01*
X1351167Y137366D01*
X1351081Y137316D01*
X1351006Y137250D01*
X1350989Y137238D01*
X1350982Y137228D01*
X1350960Y137210D01*
X1345998Y132247D01*
X1338002Y132247D01*
X1332347Y137902D01*
X1332347Y145898D01*
X1338002Y151553D01*
X1345998Y151553D01*
X1350960Y146590D01*
X1351039Y146530D01*
X1351111Y146462D01*
X1351164Y146433D01*
X1351212Y146396D01*
X1351303Y146356D01*
X1351389Y146308D01*
X1351448Y146293D01*
X1351504Y146269D01*
X1351602Y146254D01*
X1351697Y146229D01*
X1351797Y146223D01*
X1351818Y146219D01*
X1351830Y146221D01*
X1351858Y146219D01*
X1381645Y146219D01*
X1381744Y146231D01*
X1381843Y146234D01*
X1381901Y146251D01*
X1381961Y146259D01*
X1382053Y146295D01*
X1382148Y146323D01*
X1382200Y146353D01*
X1382257Y146376D01*
X1382337Y146434D01*
X1382422Y146484D01*
X1382497Y146550D01*
X1382514Y146562D01*
X1382522Y146572D01*
X1382543Y146590D01*
X1402187Y166235D01*
X1402272Y166344D01*
X1402361Y166451D01*
X1402369Y166470D01*
X1402382Y166486D01*
X1402437Y166614D01*
X1402496Y166739D01*
X1402500Y166759D01*
X1402508Y166778D01*
X1402530Y166916D01*
X1402556Y167052D01*
X1402555Y167072D01*
X1402558Y167092D01*
X1402545Y167231D01*
X1402536Y167369D01*
X1402530Y167388D01*
X1402528Y167408D01*
X1402481Y167540D01*
X1402438Y167671D01*
X1402428Y167689D01*
X1402421Y167708D01*
X1402343Y167823D01*
X1402268Y167940D01*
X1402253Y167954D01*
X1402242Y167971D01*
X1402138Y168063D01*
X1402037Y168158D01*
X1402019Y168168D01*
X1402004Y168181D01*
X1401880Y168244D01*
X1401758Y168312D01*
X1401738Y168317D01*
X1401720Y168326D01*
X1401585Y168356D01*
X1401450Y168391D01*
X1401422Y168393D01*
X1401410Y168396D01*
X1401390Y168395D01*
X1401289Y168401D01*
X1226595Y168401D01*
X1226496Y168389D01*
X1226397Y168386D01*
X1226339Y168369D01*
X1226279Y168361D01*
X1226187Y168325D01*
X1226092Y168297D01*
X1226040Y168267D01*
X1225983Y168244D01*
X1225903Y168186D01*
X1225818Y168136D01*
X1225743Y168070D01*
X1225726Y168058D01*
X1225718Y168048D01*
X1225697Y168030D01*
X1212910Y155243D01*
X1212850Y155165D01*
X1212782Y155092D01*
X1212753Y155039D01*
X1212716Y154992D01*
X1212676Y154901D01*
X1212628Y154814D01*
X1212613Y154755D01*
X1212589Y154700D01*
X1212574Y154602D01*
X1212549Y154506D01*
X1212543Y154406D01*
X1212539Y154386D01*
X1212541Y154373D01*
X1212539Y154345D01*
X1212539Y142207D01*
X1212551Y142109D01*
X1212554Y142010D01*
X1212571Y141952D01*
X1212579Y141892D01*
X1212615Y141799D01*
X1212643Y141704D01*
X1212673Y141652D01*
X1212696Y141596D01*
X1212754Y141516D01*
X1212804Y141430D01*
X1212870Y141355D01*
X1212882Y141339D01*
X1212892Y141331D01*
X1212910Y141310D01*
X1214011Y140209D01*
X1215051Y137699D01*
X1215051Y134981D01*
X1214011Y132471D01*
X1212911Y131370D01*
X1212850Y131292D01*
X1212782Y131220D01*
X1212753Y131167D01*
X1212716Y131119D01*
X1212676Y131028D01*
X1212628Y130942D01*
X1212613Y130883D01*
X1212589Y130827D01*
X1212574Y130729D01*
X1212549Y130634D01*
X1212543Y130533D01*
X1212539Y130513D01*
X1212541Y130501D01*
X1212539Y130473D01*
X1212539Y98991D01*
X1200669Y87121D01*
X1168175Y87121D01*
X1168076Y87109D01*
X1167977Y87106D01*
X1167919Y87089D01*
X1167859Y87081D01*
X1167767Y87045D01*
X1167672Y87017D01*
X1167620Y86987D01*
X1167563Y86964D01*
X1167483Y86906D01*
X1167398Y86856D01*
X1167323Y86790D01*
X1167306Y86778D01*
X1167298Y86768D01*
X1167277Y86750D01*
X1165090Y84563D01*
X1165030Y84485D01*
X1164962Y84412D01*
X1164933Y84359D01*
X1164896Y84312D01*
X1164856Y84221D01*
X1164808Y84134D01*
X1164793Y84075D01*
X1164769Y84020D01*
X1164754Y83922D01*
X1164729Y83826D01*
X1164723Y83726D01*
X1164719Y83706D01*
X1164721Y83693D01*
X1164719Y83665D01*
X1164719Y62787D01*
X1164722Y62758D01*
X1164720Y62729D01*
X1164742Y62600D01*
X1164759Y62472D01*
X1164769Y62444D01*
X1164774Y62415D01*
X1164828Y62297D01*
X1164876Y62176D01*
X1164893Y62152D01*
X1164905Y62125D01*
X1164986Y62024D01*
X1165062Y61919D01*
X1165085Y61900D01*
X1165104Y61877D01*
X1165207Y61799D01*
X1165307Y61716D01*
X1165334Y61703D01*
X1165358Y61686D01*
X1165502Y61615D01*
X1167738Y60689D01*
X1171383Y57044D01*
X1173355Y52283D01*
X1173355Y27317D01*
X1171383Y22556D01*
X1167738Y18911D01*
X1162977Y16939D01*
X1157823Y16939D01*
G37*
%LPD*%
%LPC*%
G36*
X840069Y16939D02*
X840069Y16939D01*
X835308Y18911D01*
X831663Y22556D01*
X829691Y27317D01*
X829691Y52283D01*
X831663Y57044D01*
X835308Y60689D01*
X837544Y61615D01*
X837569Y61629D01*
X837597Y61638D01*
X837707Y61708D01*
X837820Y61772D01*
X837841Y61793D01*
X837866Y61809D01*
X837955Y61903D01*
X838048Y61993D01*
X838064Y62019D01*
X838084Y62040D01*
X838147Y62154D01*
X838215Y62265D01*
X838223Y62293D01*
X838238Y62319D01*
X838270Y62444D01*
X838308Y62569D01*
X838310Y62598D01*
X838317Y62627D01*
X838327Y62787D01*
X838327Y84975D01*
X859271Y105919D01*
X914625Y105919D01*
X914724Y105931D01*
X914823Y105934D01*
X914881Y105951D01*
X914941Y105959D01*
X915033Y105995D01*
X915128Y106023D01*
X915180Y106053D01*
X915237Y106076D01*
X915317Y106134D01*
X915402Y106184D01*
X915477Y106250D01*
X915494Y106262D01*
X915502Y106272D01*
X915523Y106290D01*
X935110Y125877D01*
X935170Y125955D01*
X935238Y126028D01*
X935267Y126081D01*
X935304Y126128D01*
X935344Y126219D01*
X935392Y126306D01*
X935407Y126365D01*
X935431Y126420D01*
X935446Y126518D01*
X935471Y126614D01*
X935477Y126714D01*
X935481Y126734D01*
X935479Y126747D01*
X935481Y126775D01*
X935481Y243053D01*
X935469Y243151D01*
X935466Y243250D01*
X935449Y243308D01*
X935441Y243368D01*
X935405Y243461D01*
X935377Y243556D01*
X935347Y243608D01*
X935324Y243664D01*
X935266Y243744D01*
X935216Y243830D01*
X935150Y243905D01*
X935138Y243921D01*
X935128Y243929D01*
X935110Y243950D01*
X934009Y245051D01*
X932969Y247561D01*
X932969Y250279D01*
X934009Y252789D01*
X935931Y254711D01*
X938441Y255751D01*
X941159Y255751D01*
X943669Y254711D01*
X945591Y252789D01*
X946631Y250279D01*
X946631Y247561D01*
X945591Y245051D01*
X944490Y243950D01*
X944430Y243872D01*
X944362Y243800D01*
X944333Y243747D01*
X944296Y243699D01*
X944256Y243608D01*
X944208Y243522D01*
X944193Y243463D01*
X944169Y243407D01*
X944154Y243309D01*
X944129Y243214D01*
X944123Y243114D01*
X944119Y243093D01*
X944121Y243081D01*
X944119Y243053D01*
X944119Y156239D01*
X944136Y156101D01*
X944149Y155962D01*
X944156Y155943D01*
X944159Y155923D01*
X944210Y155794D01*
X944257Y155663D01*
X944268Y155646D01*
X944276Y155627D01*
X944357Y155515D01*
X944435Y155400D01*
X944451Y155386D01*
X944462Y155370D01*
X944570Y155281D01*
X944674Y155189D01*
X944692Y155180D01*
X944707Y155167D01*
X944833Y155108D01*
X944957Y155045D01*
X944977Y155040D01*
X944995Y155032D01*
X945131Y155006D01*
X945267Y154975D01*
X945288Y154976D01*
X945307Y154972D01*
X945446Y154981D01*
X945585Y154985D01*
X945605Y154990D01*
X945625Y154992D01*
X945757Y155034D01*
X945891Y155073D01*
X945908Y155083D01*
X945927Y155090D01*
X946045Y155164D01*
X946165Y155235D01*
X946186Y155253D01*
X946196Y155260D01*
X946210Y155275D01*
X946285Y155341D01*
X975603Y184659D01*
X1175233Y184659D01*
X1175331Y184671D01*
X1175430Y184674D01*
X1175488Y184691D01*
X1175548Y184699D01*
X1175641Y184735D01*
X1175736Y184763D01*
X1175788Y184793D01*
X1175844Y184816D01*
X1175924Y184874D01*
X1176010Y184924D01*
X1176085Y184990D01*
X1176101Y185002D01*
X1176109Y185012D01*
X1176130Y185030D01*
X1177231Y186131D01*
X1179741Y187171D01*
X1182459Y187171D01*
X1184969Y186131D01*
X1186891Y184209D01*
X1187931Y181699D01*
X1187931Y178981D01*
X1186891Y176471D01*
X1184969Y174549D01*
X1182459Y173509D01*
X1179741Y173509D01*
X1177231Y174549D01*
X1176130Y175650D01*
X1176052Y175710D01*
X1175980Y175778D01*
X1175927Y175807D01*
X1175879Y175844D01*
X1175788Y175884D01*
X1175702Y175932D01*
X1175643Y175947D01*
X1175587Y175971D01*
X1175489Y175986D01*
X1175394Y176011D01*
X1175294Y176017D01*
X1175273Y176021D01*
X1175261Y176019D01*
X1175233Y176021D01*
X979707Y176021D01*
X979608Y176009D01*
X979509Y176006D01*
X979451Y175989D01*
X979391Y175981D01*
X979299Y175945D01*
X979204Y175917D01*
X979152Y175887D01*
X979095Y175864D01*
X979015Y175806D01*
X978930Y175756D01*
X978855Y175690D01*
X978838Y175678D01*
X978830Y175668D01*
X978809Y175650D01*
X949062Y145903D01*
X949002Y145825D01*
X948934Y145752D01*
X948905Y145699D01*
X948868Y145652D01*
X948828Y145561D01*
X948780Y145474D01*
X948765Y145415D01*
X948741Y145360D01*
X948726Y145262D01*
X948701Y145166D01*
X948695Y145066D01*
X948691Y145046D01*
X948693Y145033D01*
X948691Y145005D01*
X948691Y124743D01*
X948703Y124644D01*
X948706Y124545D01*
X948723Y124487D01*
X948731Y124427D01*
X948767Y124335D01*
X948795Y124240D01*
X948825Y124188D01*
X948848Y124131D01*
X948906Y124051D01*
X948956Y123966D01*
X949022Y123891D01*
X949034Y123874D01*
X949044Y123866D01*
X949062Y123845D01*
X979365Y93543D01*
X979365Y62787D01*
X979368Y62758D01*
X979366Y62729D01*
X979388Y62600D01*
X979405Y62472D01*
X979415Y62444D01*
X979420Y62415D01*
X979474Y62297D01*
X979522Y62176D01*
X979539Y62152D01*
X979551Y62125D01*
X979632Y62024D01*
X979708Y61919D01*
X979731Y61900D01*
X979750Y61877D01*
X979853Y61799D01*
X979953Y61716D01*
X979980Y61703D01*
X980004Y61686D01*
X980148Y61615D01*
X982384Y60689D01*
X986029Y57044D01*
X988001Y52283D01*
X988001Y27317D01*
X986029Y22556D01*
X982384Y18911D01*
X977623Y16939D01*
X972469Y16939D01*
X967708Y18911D01*
X964063Y22556D01*
X962091Y27317D01*
X962091Y52283D01*
X964063Y57044D01*
X967708Y60689D01*
X969944Y61615D01*
X969969Y61629D01*
X969997Y61638D01*
X970107Y61708D01*
X970220Y61772D01*
X970241Y61793D01*
X970266Y61809D01*
X970355Y61903D01*
X970448Y61993D01*
X970464Y62019D01*
X970484Y62040D01*
X970547Y62154D01*
X970615Y62265D01*
X970623Y62293D01*
X970638Y62319D01*
X970670Y62444D01*
X970708Y62569D01*
X970710Y62598D01*
X970717Y62627D01*
X970727Y62787D01*
X970727Y89439D01*
X970715Y89538D01*
X970712Y89637D01*
X970695Y89695D01*
X970687Y89755D01*
X970651Y89847D01*
X970623Y89942D01*
X970593Y89994D01*
X970570Y90051D01*
X970512Y90131D01*
X970462Y90216D01*
X970396Y90291D01*
X970384Y90308D01*
X970374Y90316D01*
X970356Y90337D01*
X941967Y118725D01*
X941873Y118798D01*
X941784Y118877D01*
X941748Y118895D01*
X941716Y118920D01*
X941607Y118967D01*
X941501Y119021D01*
X941462Y119030D01*
X941424Y119046D01*
X941307Y119065D01*
X941191Y119091D01*
X941150Y119090D01*
X941110Y119096D01*
X940992Y119085D01*
X940873Y119081D01*
X940834Y119070D01*
X940794Y119066D01*
X940681Y119026D01*
X940567Y118993D01*
X940532Y118972D01*
X940494Y118959D01*
X940396Y118892D01*
X940293Y118831D01*
X940248Y118791D01*
X940231Y118780D01*
X940218Y118765D01*
X940172Y118725D01*
X918729Y97281D01*
X863375Y97281D01*
X863276Y97269D01*
X863177Y97266D01*
X863119Y97249D01*
X863059Y97241D01*
X862967Y97205D01*
X862872Y97177D01*
X862820Y97147D01*
X862763Y97124D01*
X862683Y97066D01*
X862598Y97016D01*
X862523Y96950D01*
X862506Y96938D01*
X862498Y96928D01*
X862477Y96910D01*
X847336Y81769D01*
X847276Y81691D01*
X847208Y81618D01*
X847179Y81565D01*
X847142Y81518D01*
X847102Y81427D01*
X847054Y81340D01*
X847039Y81281D01*
X847015Y81226D01*
X847000Y81128D01*
X846975Y81032D01*
X846969Y80932D01*
X846965Y80912D01*
X846967Y80899D01*
X846965Y80871D01*
X846965Y62787D01*
X846968Y62758D01*
X846966Y62729D01*
X846988Y62600D01*
X847005Y62472D01*
X847015Y62444D01*
X847020Y62415D01*
X847074Y62297D01*
X847122Y62176D01*
X847139Y62152D01*
X847151Y62125D01*
X847232Y62024D01*
X847308Y61919D01*
X847331Y61900D01*
X847350Y61877D01*
X847453Y61799D01*
X847553Y61716D01*
X847580Y61703D01*
X847604Y61686D01*
X847748Y61615D01*
X849984Y60689D01*
X853629Y57044D01*
X855601Y52283D01*
X855601Y27317D01*
X853629Y22556D01*
X849984Y18911D01*
X845223Y16939D01*
X840069Y16939D01*
G37*
%LPD*%
%LPC*%
G36*
X1343794Y281889D02*
X1343794Y281889D01*
X1331866Y285391D01*
X1321409Y292112D01*
X1313268Y301507D01*
X1308104Y312815D01*
X1306334Y325120D01*
X1308104Y337425D01*
X1313268Y348733D01*
X1321408Y358128D01*
X1331866Y364849D01*
X1343794Y368351D01*
X1356226Y368351D01*
X1368154Y364849D01*
X1378611Y358128D01*
X1386752Y348733D01*
X1391916Y337425D01*
X1393686Y325120D01*
X1391916Y312815D01*
X1386752Y301507D01*
X1378612Y292112D01*
X1368154Y285391D01*
X1356226Y281889D01*
X1343794Y281889D01*
G37*
%LPD*%
%LPC*%
G36*
X684664Y882599D02*
X684664Y882599D01*
X672736Y886101D01*
X662279Y892822D01*
X654138Y902217D01*
X648974Y913525D01*
X647204Y925830D01*
X648974Y938135D01*
X654138Y949443D01*
X662279Y958838D01*
X672736Y965559D01*
X684664Y969061D01*
X697096Y969061D01*
X709024Y965559D01*
X719481Y958838D01*
X727622Y949443D01*
X732786Y938135D01*
X734556Y925830D01*
X732786Y913525D01*
X727622Y902217D01*
X719482Y892822D01*
X709024Y886101D01*
X697096Y882599D01*
X684664Y882599D01*
G37*
%LPD*%
G36*
X316317Y769887D02*
X316317Y769887D01*
X316404Y769890D01*
X316457Y769907D01*
X316512Y769915D01*
X316591Y769950D01*
X316675Y769977D01*
X316714Y770005D01*
X316771Y770031D01*
X316884Y770127D01*
X316948Y770172D01*
X333458Y786682D01*
X333510Y786752D01*
X333570Y786816D01*
X333596Y786865D01*
X333629Y786909D01*
X333660Y786991D01*
X333700Y787069D01*
X333708Y787117D01*
X333730Y787175D01*
X333742Y787323D01*
X333755Y787400D01*
X333755Y853440D01*
X333743Y853527D01*
X333740Y853614D01*
X333723Y853667D01*
X333715Y853722D01*
X333680Y853801D01*
X333653Y853885D01*
X333625Y853924D01*
X333599Y853981D01*
X333503Y854094D01*
X333458Y854158D01*
X320758Y866858D01*
X320688Y866910D01*
X320624Y866970D01*
X320575Y866996D01*
X320531Y867029D01*
X320449Y867060D01*
X320371Y867100D01*
X320324Y867108D01*
X320265Y867130D01*
X320117Y867142D01*
X320040Y867155D01*
X287020Y867155D01*
X286933Y867143D01*
X286846Y867140D01*
X286793Y867123D01*
X286739Y867115D01*
X286659Y867080D01*
X286575Y867053D01*
X286536Y867025D01*
X286479Y866999D01*
X286366Y866903D01*
X286302Y866858D01*
X282790Y863345D01*
X279400Y863345D01*
X279313Y863333D01*
X279226Y863330D01*
X279173Y863313D01*
X279119Y863305D01*
X279039Y863270D01*
X278955Y863243D01*
X278916Y863215D01*
X278859Y863189D01*
X278746Y863093D01*
X278682Y863048D01*
X272630Y856995D01*
X271780Y856995D01*
X271722Y856987D01*
X271664Y856989D01*
X271582Y856967D01*
X271499Y856955D01*
X271445Y856932D01*
X271389Y856917D01*
X271316Y856874D01*
X271239Y856839D01*
X271194Y856801D01*
X271144Y856772D01*
X271086Y856710D01*
X271022Y856656D01*
X270990Y856607D01*
X270950Y856564D01*
X270911Y856489D01*
X270865Y856419D01*
X270847Y856363D01*
X270820Y856311D01*
X270809Y856243D01*
X270779Y856148D01*
X270776Y856048D01*
X270765Y855980D01*
X270765Y787400D01*
X270777Y787313D01*
X270780Y787226D01*
X270797Y787173D01*
X270805Y787119D01*
X270840Y787039D01*
X270867Y786955D01*
X270895Y786916D01*
X270921Y786859D01*
X271017Y786746D01*
X271062Y786682D01*
X287572Y770172D01*
X287642Y770120D01*
X287706Y770060D01*
X287755Y770034D01*
X287799Y770001D01*
X287881Y769970D01*
X287959Y769930D01*
X288007Y769922D01*
X288065Y769900D01*
X288213Y769888D01*
X288290Y769875D01*
X316230Y769875D01*
X316317Y769887D01*
G37*
G36*
X318947Y876657D02*
X318947Y876657D01*
X319034Y876660D01*
X319087Y876677D01*
X319142Y876685D01*
X319221Y876720D01*
X319305Y876747D01*
X319344Y876775D01*
X319401Y876801D01*
X319514Y876897D01*
X319578Y876942D01*
X332188Y889552D01*
X332240Y889622D01*
X332300Y889686D01*
X332326Y889735D01*
X332359Y889779D01*
X332390Y889861D01*
X332430Y889939D01*
X332438Y889987D01*
X332460Y890045D01*
X332472Y890193D01*
X332485Y890270D01*
X332485Y958530D01*
X332473Y958617D01*
X332470Y958704D01*
X332453Y958757D01*
X332445Y958812D01*
X332410Y958891D01*
X332383Y958975D01*
X332355Y959014D01*
X332329Y959071D01*
X332233Y959184D01*
X332188Y959248D01*
X320718Y970718D01*
X320648Y970770D01*
X320584Y970830D01*
X320535Y970856D01*
X320491Y970889D01*
X320409Y970920D01*
X320331Y970960D01*
X320284Y970968D01*
X320225Y970990D01*
X320077Y971002D01*
X320000Y971015D01*
X290000Y971015D01*
X289913Y971003D01*
X289826Y971000D01*
X289773Y970983D01*
X289719Y970975D01*
X289639Y970940D01*
X289555Y970913D01*
X289516Y970885D01*
X289459Y970859D01*
X289346Y970763D01*
X289282Y970718D01*
X269282Y950718D01*
X269230Y950648D01*
X269170Y950584D01*
X269144Y950535D01*
X269111Y950491D01*
X269080Y950409D01*
X269040Y950331D01*
X269032Y950284D01*
X269010Y950225D01*
X268998Y950077D01*
X268985Y950000D01*
X268985Y890000D01*
X268997Y889913D01*
X269000Y889826D01*
X269017Y889773D01*
X269025Y889719D01*
X269060Y889639D01*
X269087Y889555D01*
X269115Y889516D01*
X269141Y889459D01*
X269237Y889346D01*
X269282Y889282D01*
X281622Y876942D01*
X281692Y876890D01*
X281756Y876830D01*
X281805Y876804D01*
X281849Y876771D01*
X281931Y876740D01*
X282009Y876700D01*
X282057Y876692D01*
X282115Y876670D01*
X282263Y876658D01*
X282340Y876645D01*
X318860Y876645D01*
X318947Y876657D01*
G37*
%LPC*%
G36*
X1415180Y39047D02*
X1415180Y39047D01*
X1411632Y40517D01*
X1408917Y43232D01*
X1407447Y46780D01*
X1407447Y50620D01*
X1408917Y54168D01*
X1411632Y56883D01*
X1412218Y57126D01*
X1412243Y57140D01*
X1412271Y57149D01*
X1412381Y57219D01*
X1412494Y57283D01*
X1412515Y57304D01*
X1412540Y57320D01*
X1412629Y57414D01*
X1412722Y57505D01*
X1412738Y57530D01*
X1412758Y57551D01*
X1412821Y57665D01*
X1412889Y57776D01*
X1412897Y57804D01*
X1412912Y57830D01*
X1412944Y57955D01*
X1412982Y58080D01*
X1412984Y58109D01*
X1412991Y58138D01*
X1413001Y58298D01*
X1413001Y68805D01*
X1412989Y68904D01*
X1412986Y69003D01*
X1412969Y69061D01*
X1412961Y69121D01*
X1412925Y69213D01*
X1412897Y69308D01*
X1412867Y69360D01*
X1412844Y69417D01*
X1412786Y69497D01*
X1412736Y69582D01*
X1412670Y69657D01*
X1412658Y69674D01*
X1412648Y69682D01*
X1412630Y69703D01*
X1408283Y74050D01*
X1408205Y74110D01*
X1408132Y74178D01*
X1408079Y74207D01*
X1408032Y74244D01*
X1407941Y74284D01*
X1407854Y74332D01*
X1407795Y74347D01*
X1407740Y74371D01*
X1407642Y74386D01*
X1407546Y74411D01*
X1407446Y74417D01*
X1407426Y74421D01*
X1407413Y74419D01*
X1407385Y74421D01*
X1341871Y74421D01*
X1324981Y91311D01*
X1324981Y112992D01*
X1324969Y113090D01*
X1324966Y113189D01*
X1324949Y113247D01*
X1324941Y113308D01*
X1324905Y113400D01*
X1324877Y113495D01*
X1324847Y113547D01*
X1324824Y113603D01*
X1324766Y113683D01*
X1324716Y113769D01*
X1324650Y113844D01*
X1324638Y113861D01*
X1324628Y113868D01*
X1324610Y113890D01*
X1319647Y118852D01*
X1319647Y126848D01*
X1325302Y132503D01*
X1333298Y132503D01*
X1338953Y126848D01*
X1338953Y118852D01*
X1333990Y113890D01*
X1333930Y113811D01*
X1333862Y113739D01*
X1333833Y113686D01*
X1333796Y113638D01*
X1333756Y113547D01*
X1333708Y113461D01*
X1333693Y113402D01*
X1333669Y113346D01*
X1333654Y113248D01*
X1333629Y113153D01*
X1333623Y113052D01*
X1333619Y113032D01*
X1333621Y113020D01*
X1333619Y112992D01*
X1333619Y95415D01*
X1333631Y95316D01*
X1333634Y95217D01*
X1333651Y95159D01*
X1333659Y95099D01*
X1333695Y95007D01*
X1333723Y94912D01*
X1333753Y94860D01*
X1333776Y94803D01*
X1333834Y94723D01*
X1333884Y94638D01*
X1333950Y94563D01*
X1333962Y94546D01*
X1333972Y94538D01*
X1333990Y94517D01*
X1345077Y83430D01*
X1345155Y83370D01*
X1345228Y83302D01*
X1345281Y83273D01*
X1345328Y83236D01*
X1345419Y83196D01*
X1345506Y83148D01*
X1345565Y83133D01*
X1345620Y83109D01*
X1345718Y83094D01*
X1345814Y83069D01*
X1345914Y83063D01*
X1345934Y83059D01*
X1345947Y83061D01*
X1345975Y83059D01*
X1359578Y83059D01*
X1359647Y83067D01*
X1359717Y83066D01*
X1359804Y83087D01*
X1359893Y83099D01*
X1359958Y83124D01*
X1360026Y83141D01*
X1360105Y83183D01*
X1360189Y83216D01*
X1360245Y83257D01*
X1360307Y83289D01*
X1360373Y83350D01*
X1360446Y83402D01*
X1360491Y83456D01*
X1360542Y83503D01*
X1360592Y83578D01*
X1360649Y83647D01*
X1360679Y83711D01*
X1360717Y83769D01*
X1360746Y83854D01*
X1360784Y83935D01*
X1360798Y84004D01*
X1360820Y84070D01*
X1360827Y84159D01*
X1360844Y84247D01*
X1360840Y84317D01*
X1360845Y84387D01*
X1360830Y84475D01*
X1360824Y84565D01*
X1360803Y84631D01*
X1360791Y84700D01*
X1360754Y84782D01*
X1360726Y84867D01*
X1360689Y84926D01*
X1360660Y84990D01*
X1360604Y85060D01*
X1360556Y85136D01*
X1360505Y85184D01*
X1360462Y85238D01*
X1360390Y85293D01*
X1360325Y85354D01*
X1360264Y85388D01*
X1360208Y85430D01*
X1360063Y85501D01*
X1359531Y85721D01*
X1357609Y87643D01*
X1356569Y90153D01*
X1356569Y92871D01*
X1357609Y95381D01*
X1359531Y97303D01*
X1362041Y98343D01*
X1364759Y98343D01*
X1367269Y97303D01*
X1369191Y95381D01*
X1370231Y92871D01*
X1370231Y91315D01*
X1370243Y91216D01*
X1370246Y91117D01*
X1370263Y91059D01*
X1370271Y90999D01*
X1370307Y90907D01*
X1370335Y90812D01*
X1370365Y90760D01*
X1370388Y90703D01*
X1370446Y90623D01*
X1370496Y90538D01*
X1370562Y90463D01*
X1370574Y90446D01*
X1370584Y90438D01*
X1370602Y90417D01*
X1373017Y88002D01*
X1373095Y87942D01*
X1373168Y87874D01*
X1373221Y87845D01*
X1373268Y87808D01*
X1373359Y87768D01*
X1373446Y87720D01*
X1373505Y87705D01*
X1373560Y87681D01*
X1373658Y87666D01*
X1373754Y87641D01*
X1373854Y87635D01*
X1373874Y87631D01*
X1373887Y87633D01*
X1373915Y87631D01*
X1413383Y87631D01*
X1422663Y78350D01*
X1422741Y78290D01*
X1422813Y78222D01*
X1422866Y78193D01*
X1422914Y78156D01*
X1423005Y78116D01*
X1423092Y78068D01*
X1423150Y78053D01*
X1423206Y78029D01*
X1423304Y78014D01*
X1423400Y77989D01*
X1423500Y77983D01*
X1423520Y77979D01*
X1423532Y77981D01*
X1423560Y77979D01*
X1431809Y77979D01*
X1446819Y62969D01*
X1446819Y58207D01*
X1446822Y58178D01*
X1446820Y58148D01*
X1446842Y58021D01*
X1446859Y57892D01*
X1446869Y57864D01*
X1446874Y57835D01*
X1446928Y57716D01*
X1446976Y57596D01*
X1446993Y57572D01*
X1447005Y57545D01*
X1447086Y57444D01*
X1447162Y57339D01*
X1447185Y57320D01*
X1447204Y57297D01*
X1447307Y57219D01*
X1447407Y57136D01*
X1447434Y57123D01*
X1447458Y57106D01*
X1447602Y57035D01*
X1447968Y56883D01*
X1450683Y54168D01*
X1452153Y50620D01*
X1452153Y46780D01*
X1450683Y43232D01*
X1447968Y40517D01*
X1444420Y39047D01*
X1440580Y39047D01*
X1437032Y40517D01*
X1434317Y43232D01*
X1432847Y46780D01*
X1432847Y50620D01*
X1434317Y54168D01*
X1437032Y56883D01*
X1437398Y57035D01*
X1437423Y57049D01*
X1437451Y57058D01*
X1437561Y57128D01*
X1437674Y57192D01*
X1437695Y57213D01*
X1437720Y57228D01*
X1437809Y57323D01*
X1437902Y57413D01*
X1437918Y57439D01*
X1437938Y57460D01*
X1438001Y57574D01*
X1438069Y57685D01*
X1438077Y57713D01*
X1438092Y57739D01*
X1438124Y57864D01*
X1438162Y57988D01*
X1438164Y58018D01*
X1438171Y58047D01*
X1438181Y58207D01*
X1438181Y58865D01*
X1438169Y58964D01*
X1438166Y59063D01*
X1438149Y59121D01*
X1438141Y59181D01*
X1438105Y59273D01*
X1438077Y59368D01*
X1438047Y59420D01*
X1438024Y59477D01*
X1437966Y59557D01*
X1437916Y59642D01*
X1437850Y59717D01*
X1437838Y59734D01*
X1437828Y59742D01*
X1437810Y59763D01*
X1428603Y68970D01*
X1428525Y69030D01*
X1428452Y69098D01*
X1428399Y69127D01*
X1428352Y69164D01*
X1428261Y69204D01*
X1428174Y69252D01*
X1428115Y69267D01*
X1428060Y69291D01*
X1427962Y69306D01*
X1427866Y69331D01*
X1427766Y69337D01*
X1427746Y69341D01*
X1427733Y69339D01*
X1427705Y69341D01*
X1422908Y69341D01*
X1422790Y69326D01*
X1422671Y69319D01*
X1422633Y69306D01*
X1422592Y69301D01*
X1422482Y69258D01*
X1422369Y69221D01*
X1422334Y69199D01*
X1422297Y69184D01*
X1422201Y69115D01*
X1422100Y69051D01*
X1422072Y69021D01*
X1422039Y68998D01*
X1421963Y68906D01*
X1421882Y68819D01*
X1421862Y68784D01*
X1421837Y68753D01*
X1421786Y68645D01*
X1421728Y68541D01*
X1421718Y68501D01*
X1421701Y68465D01*
X1421679Y68348D01*
X1421649Y68233D01*
X1421645Y68173D01*
X1421641Y68153D01*
X1421643Y68132D01*
X1421639Y68072D01*
X1421639Y58116D01*
X1421642Y58087D01*
X1421640Y58057D01*
X1421662Y57930D01*
X1421679Y57801D01*
X1421689Y57773D01*
X1421695Y57744D01*
X1421748Y57626D01*
X1421796Y57505D01*
X1421813Y57481D01*
X1421825Y57454D01*
X1421906Y57352D01*
X1421982Y57248D01*
X1422005Y57229D01*
X1422024Y57206D01*
X1422127Y57128D01*
X1422227Y57045D01*
X1422254Y57032D01*
X1422278Y57014D01*
X1422422Y56943D01*
X1422568Y56883D01*
X1425283Y54168D01*
X1426753Y50620D01*
X1426753Y46780D01*
X1425283Y43232D01*
X1422568Y40517D01*
X1419020Y39047D01*
X1415180Y39047D01*
G37*
%LPD*%
%LPC*%
G36*
X1549017Y494607D02*
X1549017Y494607D01*
X1544256Y496579D01*
X1540611Y500224D01*
X1538639Y504985D01*
X1538639Y510139D01*
X1540611Y514900D01*
X1544256Y518545D01*
X1549017Y520517D01*
X1573983Y520517D01*
X1578744Y518545D01*
X1582389Y514900D01*
X1584361Y510139D01*
X1584361Y504985D01*
X1582389Y500224D01*
X1578744Y496579D01*
X1573983Y494607D01*
X1549017Y494607D01*
G37*
%LPD*%
%LPC*%
G36*
X789777Y16939D02*
X789777Y16939D01*
X785016Y18911D01*
X781371Y22556D01*
X779399Y27317D01*
X779399Y52283D01*
X781371Y57044D01*
X785016Y60689D01*
X789777Y62661D01*
X794931Y62661D01*
X799692Y60689D01*
X803337Y57044D01*
X805309Y52283D01*
X805309Y27317D01*
X803337Y22556D01*
X799692Y18911D01*
X794931Y16939D01*
X789777Y16939D01*
G37*
%LPD*%
%LPC*%
G36*
X922177Y16939D02*
X922177Y16939D01*
X917416Y18911D01*
X913771Y22556D01*
X911799Y27317D01*
X911799Y52283D01*
X913771Y57044D01*
X917416Y60689D01*
X922177Y62661D01*
X927331Y62661D01*
X932092Y60689D01*
X935737Y57044D01*
X937709Y52283D01*
X937709Y27317D01*
X935737Y22556D01*
X932092Y18911D01*
X927331Y16939D01*
X922177Y16939D01*
G37*
%LPD*%
%LPC*%
G36*
X1549017Y148807D02*
X1549017Y148807D01*
X1544256Y150779D01*
X1540611Y154424D01*
X1538639Y159185D01*
X1538639Y164339D01*
X1540611Y169100D01*
X1544256Y172745D01*
X1549017Y174717D01*
X1573983Y174717D01*
X1578744Y172745D01*
X1582389Y169100D01*
X1584361Y164339D01*
X1584361Y159185D01*
X1582389Y154424D01*
X1578744Y150779D01*
X1573983Y148807D01*
X1549017Y148807D01*
G37*
%LPD*%
%LPC*%
G36*
X1549017Y371745D02*
X1549017Y371745D01*
X1544256Y373717D01*
X1540611Y377362D01*
X1538639Y382123D01*
X1538639Y387277D01*
X1540611Y392038D01*
X1544256Y395683D01*
X1549017Y397655D01*
X1573983Y397655D01*
X1578744Y395683D01*
X1582389Y392038D01*
X1584361Y387277D01*
X1584361Y382123D01*
X1582389Y377362D01*
X1578744Y373717D01*
X1573983Y371745D01*
X1549017Y371745D01*
G37*
%LPD*%
%LPC*%
G36*
X1549017Y198845D02*
X1549017Y198845D01*
X1544256Y200817D01*
X1540611Y204462D01*
X1538639Y209223D01*
X1538639Y214377D01*
X1540611Y219138D01*
X1544256Y222783D01*
X1549017Y224755D01*
X1573983Y224755D01*
X1578744Y222783D01*
X1582389Y219138D01*
X1584361Y214377D01*
X1584361Y209223D01*
X1582389Y204462D01*
X1578744Y200817D01*
X1573983Y198845D01*
X1549017Y198845D01*
G37*
%LPD*%
%LPC*%
G36*
X1549017Y321707D02*
X1549017Y321707D01*
X1544256Y323679D01*
X1540611Y327324D01*
X1538639Y332085D01*
X1538639Y337239D01*
X1540611Y342000D01*
X1544256Y345645D01*
X1549017Y347617D01*
X1573983Y347617D01*
X1578744Y345645D01*
X1582389Y342000D01*
X1584361Y337239D01*
X1584361Y332085D01*
X1582389Y327324D01*
X1578744Y323679D01*
X1573983Y321707D01*
X1549017Y321707D01*
G37*
%LPD*%
%LPC*%
G36*
X1549017Y544645D02*
X1549017Y544645D01*
X1544256Y546617D01*
X1540611Y550262D01*
X1538639Y555023D01*
X1538639Y560177D01*
X1540611Y564938D01*
X1544256Y568583D01*
X1549017Y570555D01*
X1573983Y570555D01*
X1578744Y568583D01*
X1582389Y564938D01*
X1584361Y560177D01*
X1584361Y555023D01*
X1582389Y550262D01*
X1578744Y546617D01*
X1573983Y544645D01*
X1549017Y544645D01*
G37*
%LPD*%
%LPC*%
G36*
X1107785Y16939D02*
X1107785Y16939D01*
X1103024Y18911D01*
X1099379Y22556D01*
X1097407Y27317D01*
X1097407Y52283D01*
X1099379Y57044D01*
X1103024Y60689D01*
X1107785Y62661D01*
X1112939Y62661D01*
X1117700Y60689D01*
X1121345Y57044D01*
X1123317Y52283D01*
X1123317Y27317D01*
X1121345Y22556D01*
X1117700Y18911D01*
X1112939Y16939D01*
X1107785Y16939D01*
G37*
%LPD*%
%LPC*%
G36*
X1547817Y34399D02*
X1547817Y34399D01*
X1543056Y36371D01*
X1539411Y40016D01*
X1537439Y44777D01*
X1537439Y49931D01*
X1539411Y54692D01*
X1543056Y58337D01*
X1547817Y60309D01*
X1572783Y60309D01*
X1577544Y58337D01*
X1581189Y54692D01*
X1583161Y49931D01*
X1583161Y44777D01*
X1581189Y40016D01*
X1577544Y36371D01*
X1572783Y34399D01*
X1547817Y34399D01*
G37*
%LPD*%
%LPC*%
G36*
X1408476Y577847D02*
X1408476Y577847D01*
X1404928Y579317D01*
X1402213Y582032D01*
X1400743Y585580D01*
X1400743Y589420D01*
X1402213Y592968D01*
X1404928Y595683D01*
X1408476Y597153D01*
X1425524Y597153D01*
X1429072Y595683D01*
X1431787Y592968D01*
X1433257Y589420D01*
X1433257Y585580D01*
X1431787Y582032D01*
X1429072Y579317D01*
X1425524Y577847D01*
X1408476Y577847D01*
G37*
%LPD*%
%LPC*%
G36*
X898476Y191187D02*
X898476Y191187D01*
X894928Y192657D01*
X892213Y195372D01*
X890743Y198920D01*
X890743Y202760D01*
X892213Y206308D01*
X894928Y209023D01*
X898476Y210493D01*
X915524Y210493D01*
X919072Y209023D01*
X921787Y206308D01*
X923257Y202760D01*
X923257Y198920D01*
X921787Y195372D01*
X919072Y192657D01*
X915524Y191187D01*
X898476Y191187D01*
G37*
%LPD*%
%LPC*%
G36*
X898476Y216587D02*
X898476Y216587D01*
X894928Y218057D01*
X892213Y220772D01*
X890743Y224320D01*
X890743Y228160D01*
X892213Y231708D01*
X894928Y234423D01*
X898476Y235893D01*
X915524Y235893D01*
X919072Y234423D01*
X921787Y231708D01*
X923257Y228160D01*
X923257Y224320D01*
X921787Y220772D01*
X919072Y218057D01*
X915524Y216587D01*
X898476Y216587D01*
G37*
%LPD*%
%LPC*%
G36*
X1408476Y552447D02*
X1408476Y552447D01*
X1404928Y553917D01*
X1402213Y556632D01*
X1400743Y560180D01*
X1400743Y564020D01*
X1402213Y567568D01*
X1404928Y570283D01*
X1408476Y571753D01*
X1425524Y571753D01*
X1429072Y570283D01*
X1431787Y567568D01*
X1433257Y564020D01*
X1433257Y560180D01*
X1431787Y556632D01*
X1429072Y553917D01*
X1425524Y552447D01*
X1408476Y552447D01*
G37*
%LPD*%
%LPC*%
G36*
X1408476Y527047D02*
X1408476Y527047D01*
X1404928Y528517D01*
X1402213Y531232D01*
X1400743Y534780D01*
X1400743Y538620D01*
X1402213Y542168D01*
X1404928Y544883D01*
X1408476Y546353D01*
X1425524Y546353D01*
X1429072Y544883D01*
X1431787Y542168D01*
X1433257Y538620D01*
X1433257Y534780D01*
X1431787Y531232D01*
X1429072Y528517D01*
X1425524Y527047D01*
X1408476Y527047D01*
G37*
%LPD*%
%LPC*%
G36*
X630360Y23743D02*
X630360Y23743D01*
X626812Y25213D01*
X624097Y27928D01*
X622627Y31476D01*
X622627Y48524D01*
X624097Y52072D01*
X626812Y54787D01*
X630360Y56257D01*
X634200Y56257D01*
X637748Y54787D01*
X640463Y52072D01*
X641933Y48524D01*
X641933Y31476D01*
X640463Y27928D01*
X637748Y25213D01*
X634200Y23743D01*
X630360Y23743D01*
G37*
%LPD*%
%LPC*%
G36*
X604960Y23743D02*
X604960Y23743D01*
X601412Y25213D01*
X598697Y27928D01*
X597227Y31476D01*
X597227Y48524D01*
X598697Y52072D01*
X601412Y54787D01*
X604960Y56257D01*
X608800Y56257D01*
X612348Y54787D01*
X615063Y52072D01*
X616533Y48524D01*
X616533Y31476D01*
X615063Y27928D01*
X612348Y25213D01*
X608800Y23743D01*
X604960Y23743D01*
G37*
%LPD*%
%LPC*%
G36*
X477960Y23743D02*
X477960Y23743D01*
X474412Y25213D01*
X471697Y27928D01*
X470227Y31476D01*
X470227Y48524D01*
X471697Y52072D01*
X474412Y54787D01*
X477960Y56257D01*
X481800Y56257D01*
X485348Y54787D01*
X488063Y52072D01*
X489533Y48524D01*
X489533Y31476D01*
X488063Y27928D01*
X485348Y25213D01*
X481800Y23743D01*
X477960Y23743D01*
G37*
%LPD*%
%LPC*%
G36*
X508237Y840351D02*
X508237Y840351D01*
X506451Y842137D01*
X506451Y859663D01*
X508237Y861449D01*
X508311Y861449D01*
X508350Y861454D01*
X508390Y861451D01*
X508508Y861474D01*
X508626Y861489D01*
X508663Y861503D01*
X508702Y861511D01*
X508811Y861562D01*
X508922Y861606D01*
X508954Y861629D01*
X508990Y861646D01*
X509083Y861722D01*
X509179Y861792D01*
X509205Y861823D01*
X509235Y861848D01*
X509306Y861945D01*
X509382Y862037D01*
X509399Y862073D01*
X509423Y862106D01*
X509467Y862217D01*
X509518Y862325D01*
X509525Y862364D01*
X509540Y862401D01*
X509555Y862520D01*
X509577Y862637D01*
X509575Y862677D01*
X509580Y862717D01*
X509565Y862836D01*
X509558Y862955D01*
X509545Y862993D01*
X509541Y863032D01*
X509497Y863144D01*
X509460Y863257D01*
X509438Y863291D01*
X509424Y863328D01*
X509338Y863464D01*
X508412Y864738D01*
X507695Y866146D01*
X507207Y867649D01*
X507151Y868001D01*
X516270Y868001D01*
X516388Y868016D01*
X516507Y868023D01*
X516545Y868035D01*
X516585Y868041D01*
X516696Y868084D01*
X516809Y868121D01*
X516843Y868143D01*
X516881Y868158D01*
X516977Y868227D01*
X516994Y868238D01*
X517018Y868224D01*
X517050Y868199D01*
X517157Y868148D01*
X517262Y868090D01*
X517301Y868080D01*
X517337Y868063D01*
X517454Y868041D01*
X517570Y868011D01*
X517630Y868007D01*
X517650Y868003D01*
X517670Y868005D01*
X517730Y868001D01*
X526849Y868001D01*
X526793Y867649D01*
X526305Y866146D01*
X525588Y864738D01*
X524662Y863464D01*
X524643Y863429D01*
X524618Y863399D01*
X524567Y863290D01*
X524509Y863185D01*
X524499Y863147D01*
X524482Y863111D01*
X524460Y862994D01*
X524430Y862877D01*
X524430Y862837D01*
X524423Y862798D01*
X524430Y862679D01*
X524430Y862559D01*
X524440Y862521D01*
X524442Y862481D01*
X524479Y862367D01*
X524509Y862251D01*
X524528Y862216D01*
X524540Y862179D01*
X524604Y862077D01*
X524662Y861972D01*
X524689Y861943D01*
X524710Y861910D01*
X524798Y861828D01*
X524880Y861741D01*
X524913Y861719D01*
X524942Y861692D01*
X525047Y861634D01*
X525148Y861570D01*
X525186Y861558D01*
X525221Y861538D01*
X525336Y861509D01*
X525450Y861471D01*
X525490Y861469D01*
X525529Y861459D01*
X525689Y861449D01*
X525763Y861449D01*
X527549Y859663D01*
X527549Y842137D01*
X525763Y840351D01*
X508237Y840351D01*
G37*
%LPD*%
%LPC*%
G36*
X712254Y452001D02*
X712254Y452001D01*
X707550Y453950D01*
X703950Y457550D01*
X702001Y462254D01*
X702001Y467346D01*
X703950Y472050D01*
X707550Y475650D01*
X712254Y477599D01*
X717346Y477599D01*
X722050Y475650D01*
X725650Y472050D01*
X727599Y467346D01*
X727599Y462254D01*
X725650Y457550D01*
X722050Y453950D01*
X717346Y452001D01*
X712254Y452001D01*
G37*
%LPD*%
%LPC*%
G36*
X516982Y871776D02*
X516982Y871776D01*
X516950Y871801D01*
X516843Y871852D01*
X516738Y871910D01*
X516699Y871920D01*
X516663Y871937D01*
X516546Y871959D01*
X516430Y871989D01*
X516370Y871993D01*
X516350Y871997D01*
X516330Y871995D01*
X516270Y871999D01*
X507151Y871999D01*
X507207Y872351D01*
X507695Y873854D01*
X508412Y875262D01*
X509341Y876541D01*
X510459Y877659D01*
X511031Y878075D01*
X511075Y878115D01*
X511124Y878149D01*
X511190Y878224D01*
X511263Y878292D01*
X511295Y878343D01*
X511335Y878387D01*
X511380Y878476D01*
X511434Y878561D01*
X511452Y878617D01*
X511479Y878671D01*
X511501Y878768D01*
X511532Y878863D01*
X511536Y878923D01*
X511549Y878981D01*
X511546Y879081D01*
X511552Y879181D01*
X511541Y879239D01*
X511539Y879299D01*
X511511Y879395D01*
X511493Y879493D01*
X511467Y879547D01*
X511451Y879604D01*
X511400Y879690D01*
X511358Y879781D01*
X511320Y879827D01*
X511289Y879878D01*
X511183Y879999D01*
X508057Y883125D01*
X506451Y887002D01*
X506451Y891198D01*
X508057Y895075D01*
X511025Y898043D01*
X514902Y899649D01*
X519098Y899649D01*
X522975Y898043D01*
X525943Y895075D01*
X527549Y891198D01*
X527549Y887002D01*
X525943Y883125D01*
X522817Y879999D01*
X522781Y879952D01*
X522737Y879911D01*
X522684Y879827D01*
X522622Y879748D01*
X522598Y879693D01*
X522567Y879643D01*
X522536Y879548D01*
X522496Y879456D01*
X522486Y879397D01*
X522468Y879340D01*
X522462Y879241D01*
X522446Y879142D01*
X522452Y879082D01*
X522448Y879023D01*
X522466Y878925D01*
X522476Y878825D01*
X522496Y878769D01*
X522507Y878710D01*
X522550Y878620D01*
X522583Y878526D01*
X522617Y878477D01*
X522642Y878423D01*
X522706Y878345D01*
X522762Y878263D01*
X522807Y878223D01*
X522845Y878177D01*
X522969Y878075D01*
X523541Y877659D01*
X524659Y876541D01*
X525588Y875262D01*
X526305Y873854D01*
X526793Y872351D01*
X526849Y871999D01*
X517730Y871999D01*
X517612Y871984D01*
X517493Y871977D01*
X517455Y871964D01*
X517415Y871959D01*
X517304Y871916D01*
X517191Y871879D01*
X517157Y871857D01*
X517119Y871842D01*
X517023Y871773D01*
X517006Y871762D01*
X516982Y871776D01*
G37*
%LPD*%
%LPC*%
G36*
X1128728Y737131D02*
X1128728Y737131D01*
X1124807Y738755D01*
X1121805Y741757D01*
X1120181Y745678D01*
X1120181Y749922D01*
X1121805Y753843D01*
X1124807Y756845D01*
X1128728Y758469D01*
X1132972Y758469D01*
X1136893Y756845D01*
X1139895Y753843D01*
X1141519Y749922D01*
X1141519Y745678D01*
X1139895Y741757D01*
X1136893Y738755D01*
X1132972Y737131D01*
X1128728Y737131D01*
G37*
%LPD*%
%LPC*%
G36*
X1154128Y965731D02*
X1154128Y965731D01*
X1150207Y967355D01*
X1147205Y970357D01*
X1145581Y974278D01*
X1145581Y978522D01*
X1147205Y982443D01*
X1150207Y985445D01*
X1154128Y987069D01*
X1158372Y987069D01*
X1162293Y985445D01*
X1165295Y982443D01*
X1166919Y978522D01*
X1166919Y974278D01*
X1165295Y970357D01*
X1162293Y967355D01*
X1158372Y965731D01*
X1154128Y965731D01*
G37*
%LPD*%
%LPC*%
G36*
X1408128Y965731D02*
X1408128Y965731D01*
X1404207Y967355D01*
X1401205Y970357D01*
X1399581Y974278D01*
X1399581Y978522D01*
X1401205Y982443D01*
X1404207Y985445D01*
X1408128Y987069D01*
X1412372Y987069D01*
X1416293Y985445D01*
X1419295Y982443D01*
X1420919Y978522D01*
X1420919Y974278D01*
X1419295Y970357D01*
X1416293Y967355D01*
X1412372Y965731D01*
X1408128Y965731D01*
G37*
%LPD*%
%LPC*%
G36*
X1433528Y965731D02*
X1433528Y965731D01*
X1429607Y967355D01*
X1426605Y970357D01*
X1424981Y974278D01*
X1424981Y978522D01*
X1426605Y982443D01*
X1429607Y985445D01*
X1433528Y987069D01*
X1437772Y987069D01*
X1441693Y985445D01*
X1444695Y982443D01*
X1446319Y978522D01*
X1446319Y974278D01*
X1444695Y970357D01*
X1441693Y967355D01*
X1437772Y965731D01*
X1433528Y965731D01*
G37*
%LPD*%
%LPC*%
G36*
X1128728Y965731D02*
X1128728Y965731D01*
X1124807Y967355D01*
X1121805Y970357D01*
X1120181Y974278D01*
X1120181Y978522D01*
X1121805Y982443D01*
X1124807Y985445D01*
X1128728Y987069D01*
X1132972Y987069D01*
X1136893Y985445D01*
X1139895Y982443D01*
X1141519Y978522D01*
X1141519Y974278D01*
X1139895Y970357D01*
X1136893Y967355D01*
X1132972Y965731D01*
X1128728Y965731D01*
G37*
%LPD*%
%LPC*%
G36*
X1458928Y965731D02*
X1458928Y965731D01*
X1455007Y967355D01*
X1452005Y970357D01*
X1450381Y974278D01*
X1450381Y978522D01*
X1452005Y982443D01*
X1455007Y985445D01*
X1458928Y987069D01*
X1463172Y987069D01*
X1467093Y985445D01*
X1470095Y982443D01*
X1471719Y978522D01*
X1471719Y974278D01*
X1470095Y970357D01*
X1467093Y967355D01*
X1463172Y965731D01*
X1458928Y965731D01*
G37*
%LPD*%
%LPC*%
G36*
X1357328Y965731D02*
X1357328Y965731D01*
X1353407Y967355D01*
X1350405Y970357D01*
X1348781Y974278D01*
X1348781Y978522D01*
X1350405Y982443D01*
X1353407Y985445D01*
X1357328Y987069D01*
X1361572Y987069D01*
X1365493Y985445D01*
X1368495Y982443D01*
X1370119Y978522D01*
X1370119Y974278D01*
X1368495Y970357D01*
X1365493Y967355D01*
X1361572Y965731D01*
X1357328Y965731D01*
G37*
%LPD*%
%LPC*%
G36*
X1103328Y965731D02*
X1103328Y965731D01*
X1099407Y967355D01*
X1096405Y970357D01*
X1094781Y974278D01*
X1094781Y978522D01*
X1096405Y982443D01*
X1099407Y985445D01*
X1103328Y987069D01*
X1107572Y987069D01*
X1111493Y985445D01*
X1114495Y982443D01*
X1116119Y978522D01*
X1116119Y974278D01*
X1114495Y970357D01*
X1111493Y967355D01*
X1107572Y965731D01*
X1103328Y965731D01*
G37*
%LPD*%
%LPC*%
G36*
X1382728Y965731D02*
X1382728Y965731D01*
X1378807Y967355D01*
X1375805Y970357D01*
X1374181Y974278D01*
X1374181Y978522D01*
X1375805Y982443D01*
X1378807Y985445D01*
X1382728Y987069D01*
X1386972Y987069D01*
X1390893Y985445D01*
X1393895Y982443D01*
X1395519Y978522D01*
X1395519Y974278D01*
X1393895Y970357D01*
X1390893Y967355D01*
X1386972Y965731D01*
X1382728Y965731D01*
G37*
%LPD*%
%LPC*%
G36*
X1331928Y965731D02*
X1331928Y965731D01*
X1328007Y967355D01*
X1325005Y970357D01*
X1323381Y974278D01*
X1323381Y978522D01*
X1325005Y982443D01*
X1328007Y985445D01*
X1331928Y987069D01*
X1336172Y987069D01*
X1340093Y985445D01*
X1343095Y982443D01*
X1344719Y978522D01*
X1344719Y974278D01*
X1343095Y970357D01*
X1340093Y967355D01*
X1336172Y965731D01*
X1331928Y965731D01*
G37*
%LPD*%
%LPC*%
G36*
X1306528Y965731D02*
X1306528Y965731D01*
X1302607Y967355D01*
X1299605Y970357D01*
X1297981Y974278D01*
X1297981Y978522D01*
X1299605Y982443D01*
X1302607Y985445D01*
X1306528Y987069D01*
X1310772Y987069D01*
X1314693Y985445D01*
X1317695Y982443D01*
X1319319Y978522D01*
X1319319Y974278D01*
X1317695Y970357D01*
X1314693Y967355D01*
X1310772Y965731D01*
X1306528Y965731D01*
G37*
%LPD*%
%LPC*%
G36*
X1281128Y965731D02*
X1281128Y965731D01*
X1277207Y967355D01*
X1274205Y970357D01*
X1272581Y974278D01*
X1272581Y978522D01*
X1274205Y982443D01*
X1277207Y985445D01*
X1281128Y987069D01*
X1285372Y987069D01*
X1289293Y985445D01*
X1292295Y982443D01*
X1293919Y978522D01*
X1293919Y974278D01*
X1292295Y970357D01*
X1289293Y967355D01*
X1285372Y965731D01*
X1281128Y965731D01*
G37*
%LPD*%
%LPC*%
G36*
X1255728Y965731D02*
X1255728Y965731D01*
X1251807Y967355D01*
X1248805Y970357D01*
X1247181Y974278D01*
X1247181Y978522D01*
X1248805Y982443D01*
X1251807Y985445D01*
X1255728Y987069D01*
X1259972Y987069D01*
X1263893Y985445D01*
X1266895Y982443D01*
X1268519Y978522D01*
X1268519Y974278D01*
X1266895Y970357D01*
X1263893Y967355D01*
X1259972Y965731D01*
X1255728Y965731D01*
G37*
%LPD*%
%LPC*%
G36*
X1230328Y965731D02*
X1230328Y965731D01*
X1226407Y967355D01*
X1223405Y970357D01*
X1221781Y974278D01*
X1221781Y978522D01*
X1223405Y982443D01*
X1226407Y985445D01*
X1230328Y987069D01*
X1234572Y987069D01*
X1238493Y985445D01*
X1241495Y982443D01*
X1243119Y978522D01*
X1243119Y974278D01*
X1241495Y970357D01*
X1238493Y967355D01*
X1234572Y965731D01*
X1230328Y965731D01*
G37*
%LPD*%
%LPC*%
G36*
X1204928Y965731D02*
X1204928Y965731D01*
X1201007Y967355D01*
X1198005Y970357D01*
X1196381Y974278D01*
X1196381Y978522D01*
X1198005Y982443D01*
X1201007Y985445D01*
X1204928Y987069D01*
X1209172Y987069D01*
X1213093Y985445D01*
X1216095Y982443D01*
X1217719Y978522D01*
X1217719Y974278D01*
X1216095Y970357D01*
X1213093Y967355D01*
X1209172Y965731D01*
X1204928Y965731D01*
G37*
%LPD*%
%LPC*%
G36*
X1179528Y965731D02*
X1179528Y965731D01*
X1175607Y967355D01*
X1172605Y970357D01*
X1170981Y974278D01*
X1170981Y978522D01*
X1172605Y982443D01*
X1175607Y985445D01*
X1179528Y987069D01*
X1183772Y987069D01*
X1187693Y985445D01*
X1190695Y982443D01*
X1192319Y978522D01*
X1192319Y974278D01*
X1190695Y970357D01*
X1187693Y967355D01*
X1183772Y965731D01*
X1179528Y965731D01*
G37*
%LPD*%
%LPC*%
G36*
X1230328Y737131D02*
X1230328Y737131D01*
X1226407Y738755D01*
X1223405Y741757D01*
X1221781Y745678D01*
X1221781Y749922D01*
X1223405Y753843D01*
X1226407Y756845D01*
X1230328Y758469D01*
X1234572Y758469D01*
X1238493Y756845D01*
X1241495Y753843D01*
X1243119Y749922D01*
X1243119Y745678D01*
X1241495Y741757D01*
X1238493Y738755D01*
X1234572Y737131D01*
X1230328Y737131D01*
G37*
%LPD*%
%LPC*%
G36*
X1458928Y737131D02*
X1458928Y737131D01*
X1455007Y738755D01*
X1452005Y741757D01*
X1450381Y745678D01*
X1450381Y749922D01*
X1452005Y753843D01*
X1455007Y756845D01*
X1458928Y758469D01*
X1463172Y758469D01*
X1467093Y756845D01*
X1470095Y753843D01*
X1471719Y749922D01*
X1471719Y745678D01*
X1470095Y741757D01*
X1467093Y738755D01*
X1463172Y737131D01*
X1458928Y737131D01*
G37*
%LPD*%
%LPC*%
G36*
X1408128Y737131D02*
X1408128Y737131D01*
X1404207Y738755D01*
X1401205Y741757D01*
X1399581Y745678D01*
X1399581Y749922D01*
X1401205Y753843D01*
X1404207Y756845D01*
X1408128Y758469D01*
X1412372Y758469D01*
X1416293Y756845D01*
X1419295Y753843D01*
X1420919Y749922D01*
X1420919Y745678D01*
X1419295Y741757D01*
X1416293Y738755D01*
X1412372Y737131D01*
X1408128Y737131D01*
G37*
%LPD*%
%LPC*%
G36*
X1103328Y737131D02*
X1103328Y737131D01*
X1099407Y738755D01*
X1096405Y741757D01*
X1094781Y745678D01*
X1094781Y749922D01*
X1096405Y753843D01*
X1099407Y756845D01*
X1103328Y758469D01*
X1107572Y758469D01*
X1111493Y756845D01*
X1114495Y753843D01*
X1116119Y749922D01*
X1116119Y745678D01*
X1114495Y741757D01*
X1111493Y738755D01*
X1107572Y737131D01*
X1103328Y737131D01*
G37*
%LPD*%
%LPC*%
G36*
X1357328Y737131D02*
X1357328Y737131D01*
X1353407Y738755D01*
X1350405Y741757D01*
X1348781Y745678D01*
X1348781Y749922D01*
X1350405Y753843D01*
X1353407Y756845D01*
X1357328Y758469D01*
X1361572Y758469D01*
X1365493Y756845D01*
X1368495Y753843D01*
X1370119Y749922D01*
X1370119Y745678D01*
X1368495Y741757D01*
X1365493Y738755D01*
X1361572Y737131D01*
X1357328Y737131D01*
G37*
%LPD*%
%LPC*%
G36*
X1255728Y737131D02*
X1255728Y737131D01*
X1251807Y738755D01*
X1248805Y741757D01*
X1247181Y745678D01*
X1247181Y749922D01*
X1248805Y753843D01*
X1251807Y756845D01*
X1255728Y758469D01*
X1259972Y758469D01*
X1263893Y756845D01*
X1266895Y753843D01*
X1268519Y749922D01*
X1268519Y745678D01*
X1266895Y741757D01*
X1263893Y738755D01*
X1259972Y737131D01*
X1255728Y737131D01*
G37*
%LPD*%
%LPC*%
G36*
X1204928Y737131D02*
X1204928Y737131D01*
X1201007Y738755D01*
X1198005Y741757D01*
X1196381Y745678D01*
X1196381Y749922D01*
X1198005Y753843D01*
X1201007Y756845D01*
X1204928Y758469D01*
X1209172Y758469D01*
X1213093Y756845D01*
X1216095Y753843D01*
X1217719Y749922D01*
X1217719Y745678D01*
X1216095Y741757D01*
X1213093Y738755D01*
X1209172Y737131D01*
X1204928Y737131D01*
G37*
%LPD*%
%LPC*%
G36*
X1179528Y737131D02*
X1179528Y737131D01*
X1175607Y738755D01*
X1172605Y741757D01*
X1170981Y745678D01*
X1170981Y749922D01*
X1172605Y753843D01*
X1175607Y756845D01*
X1179528Y758469D01*
X1183772Y758469D01*
X1187693Y756845D01*
X1190695Y753843D01*
X1192319Y749922D01*
X1192319Y745678D01*
X1190695Y741757D01*
X1187693Y738755D01*
X1183772Y737131D01*
X1179528Y737131D01*
G37*
%LPD*%
%LPC*%
G36*
X1154128Y737131D02*
X1154128Y737131D01*
X1150207Y738755D01*
X1147205Y741757D01*
X1145581Y745678D01*
X1145581Y749922D01*
X1147205Y753843D01*
X1150207Y756845D01*
X1154128Y758469D01*
X1158372Y758469D01*
X1162293Y756845D01*
X1165295Y753843D01*
X1166919Y749922D01*
X1166919Y745678D01*
X1165295Y741757D01*
X1162293Y738755D01*
X1158372Y737131D01*
X1154128Y737131D01*
G37*
%LPD*%
%LPC*%
G36*
X1427292Y443737D02*
X1427292Y443737D01*
X1421637Y449392D01*
X1421637Y457388D01*
X1427292Y463043D01*
X1435288Y463043D01*
X1440943Y457388D01*
X1440943Y449392D01*
X1435288Y443737D01*
X1427292Y443737D01*
G37*
%LPD*%
%LPC*%
G36*
X1408242Y456437D02*
X1408242Y456437D01*
X1402587Y462092D01*
X1402587Y470088D01*
X1408242Y475743D01*
X1416238Y475743D01*
X1421893Y470088D01*
X1421893Y462092D01*
X1416238Y456437D01*
X1408242Y456437D01*
G37*
%LPD*%
%LPC*%
G36*
X1491380Y115247D02*
X1491380Y115247D01*
X1487832Y116717D01*
X1485117Y119432D01*
X1483647Y122980D01*
X1483647Y126820D01*
X1485117Y130368D01*
X1487832Y133083D01*
X1491380Y134553D01*
X1495220Y134553D01*
X1498768Y133083D01*
X1501483Y130368D01*
X1502953Y126820D01*
X1502953Y122980D01*
X1501483Y119432D01*
X1498768Y116717D01*
X1495220Y115247D01*
X1491380Y115247D01*
G37*
%LPD*%
%LPC*%
G36*
X1415180Y115247D02*
X1415180Y115247D01*
X1411632Y116717D01*
X1408917Y119432D01*
X1407447Y122980D01*
X1407447Y126820D01*
X1408917Y130368D01*
X1411632Y133083D01*
X1415180Y134553D01*
X1419020Y134553D01*
X1422568Y133083D01*
X1425283Y130368D01*
X1426753Y126820D01*
X1426753Y122980D01*
X1425283Y119432D01*
X1422568Y116717D01*
X1419020Y115247D01*
X1415180Y115247D01*
G37*
%LPD*%
%LPC*%
G36*
X1465980Y39047D02*
X1465980Y39047D01*
X1462432Y40517D01*
X1459717Y43232D01*
X1458247Y46780D01*
X1458247Y50620D01*
X1459717Y54168D01*
X1462432Y56883D01*
X1465980Y58353D01*
X1469820Y58353D01*
X1473368Y56883D01*
X1476083Y54168D01*
X1477553Y50620D01*
X1477553Y46780D01*
X1476083Y43232D01*
X1473368Y40517D01*
X1469820Y39047D01*
X1465980Y39047D01*
G37*
%LPD*%
%LPC*%
G36*
X1440580Y115247D02*
X1440580Y115247D01*
X1437032Y116717D01*
X1434317Y119432D01*
X1432847Y122980D01*
X1432847Y126820D01*
X1434317Y130368D01*
X1437032Y133083D01*
X1440580Y134553D01*
X1444420Y134553D01*
X1447968Y133083D01*
X1450683Y130368D01*
X1452153Y126820D01*
X1452153Y122980D01*
X1450683Y119432D01*
X1447968Y116717D01*
X1444420Y115247D01*
X1440580Y115247D01*
G37*
%LPD*%
%LPC*%
G36*
X1465980Y115247D02*
X1465980Y115247D01*
X1462432Y116717D01*
X1459717Y119432D01*
X1458247Y122980D01*
X1458247Y126820D01*
X1459717Y130368D01*
X1462432Y133083D01*
X1465980Y134553D01*
X1469820Y134553D01*
X1473368Y133083D01*
X1476083Y130368D01*
X1477553Y126820D01*
X1477553Y122980D01*
X1476083Y119432D01*
X1473368Y116717D01*
X1469820Y115247D01*
X1465980Y115247D01*
G37*
%LPD*%
%LPC*%
G36*
X1564039Y437277D02*
X1564039Y437277D01*
X1564039Y447185D01*
X1572386Y447185D01*
X1574321Y446878D01*
X1576184Y446273D01*
X1577930Y445383D01*
X1579514Y444232D01*
X1580900Y442846D01*
X1582051Y441262D01*
X1582941Y439516D01*
X1583546Y437653D01*
X1583606Y437277D01*
X1564039Y437277D01*
G37*
%LPD*%
%LPC*%
G36*
X1564039Y264377D02*
X1564039Y264377D01*
X1564039Y274285D01*
X1572386Y274285D01*
X1574321Y273978D01*
X1576184Y273373D01*
X1577930Y272483D01*
X1579514Y271332D01*
X1580900Y269946D01*
X1582051Y268362D01*
X1582941Y266616D01*
X1583546Y264753D01*
X1583606Y264377D01*
X1564039Y264377D01*
G37*
%LPD*%
%LPC*%
G36*
X1562839Y100185D02*
X1562839Y100185D01*
X1562839Y110093D01*
X1571186Y110093D01*
X1573121Y109786D01*
X1574984Y109181D01*
X1576730Y108291D01*
X1578314Y107140D01*
X1579700Y105754D01*
X1580851Y104170D01*
X1581741Y102424D01*
X1582346Y100561D01*
X1582406Y100185D01*
X1562839Y100185D01*
G37*
%LPD*%
%LPC*%
G36*
X1564039Y610177D02*
X1564039Y610177D01*
X1564039Y620085D01*
X1572386Y620085D01*
X1574321Y619778D01*
X1576184Y619173D01*
X1577930Y618283D01*
X1579514Y617132D01*
X1580900Y615746D01*
X1582051Y614162D01*
X1582941Y612416D01*
X1583546Y610553D01*
X1583606Y610177D01*
X1564039Y610177D01*
G37*
%LPD*%
%LPC*%
G36*
X1212977Y42339D02*
X1212977Y42339D01*
X1212977Y61906D01*
X1213353Y61846D01*
X1215216Y61241D01*
X1216962Y60351D01*
X1218546Y59200D01*
X1219932Y57814D01*
X1221083Y56230D01*
X1221973Y54484D01*
X1222578Y52621D01*
X1222885Y50686D01*
X1222885Y42339D01*
X1212977Y42339D01*
G37*
%LPD*%
%LPC*%
G36*
X1539394Y610177D02*
X1539394Y610177D01*
X1539454Y610553D01*
X1540059Y612416D01*
X1540949Y614162D01*
X1542100Y615746D01*
X1543486Y617132D01*
X1545070Y618283D01*
X1546816Y619173D01*
X1548679Y619778D01*
X1550614Y620085D01*
X1558961Y620085D01*
X1558961Y610177D01*
X1539394Y610177D01*
G37*
%LPD*%
%LPC*%
G36*
X1539394Y264377D02*
X1539394Y264377D01*
X1539454Y264753D01*
X1540059Y266616D01*
X1540949Y268362D01*
X1542100Y269946D01*
X1543486Y271332D01*
X1545070Y272483D01*
X1546816Y273373D01*
X1548679Y273978D01*
X1550614Y274285D01*
X1558961Y274285D01*
X1558961Y264377D01*
X1539394Y264377D01*
G37*
%LPD*%
%LPC*%
G36*
X1212977Y37261D02*
X1212977Y37261D01*
X1222885Y37261D01*
X1222885Y28914D01*
X1222578Y26979D01*
X1221973Y25116D01*
X1221083Y23370D01*
X1219932Y21786D01*
X1218546Y20400D01*
X1216962Y19249D01*
X1215216Y18359D01*
X1213353Y17754D01*
X1212977Y17694D01*
X1212977Y37261D01*
G37*
%LPD*%
%LPC*%
G36*
X1539394Y437277D02*
X1539394Y437277D01*
X1539454Y437653D01*
X1540059Y439516D01*
X1540949Y441262D01*
X1542100Y442846D01*
X1543486Y444232D01*
X1545070Y445383D01*
X1546816Y446273D01*
X1548679Y446878D01*
X1550614Y447185D01*
X1558961Y447185D01*
X1558961Y437277D01*
X1539394Y437277D01*
G37*
%LPD*%
%LPC*%
G36*
X1538194Y100185D02*
X1538194Y100185D01*
X1538254Y100561D01*
X1538859Y102424D01*
X1539749Y104170D01*
X1540900Y105754D01*
X1542286Y107140D01*
X1543870Y108291D01*
X1545616Y109181D01*
X1547479Y109786D01*
X1549414Y110093D01*
X1557761Y110093D01*
X1557761Y100185D01*
X1538194Y100185D01*
G37*
%LPD*%
%LPC*%
G36*
X1564039Y249391D02*
X1564039Y249391D01*
X1564039Y259299D01*
X1583606Y259299D01*
X1583546Y258923D01*
X1582941Y257060D01*
X1582051Y255314D01*
X1580900Y253730D01*
X1579514Y252344D01*
X1577930Y251193D01*
X1576184Y250303D01*
X1574321Y249698D01*
X1572386Y249391D01*
X1564039Y249391D01*
G37*
%LPD*%
%LPC*%
G36*
X1562839Y85199D02*
X1562839Y85199D01*
X1562839Y95107D01*
X1582406Y95107D01*
X1582346Y94731D01*
X1581741Y92868D01*
X1580851Y91122D01*
X1579700Y89538D01*
X1578314Y88152D01*
X1576730Y87001D01*
X1574984Y86111D01*
X1573121Y85506D01*
X1571186Y85199D01*
X1562839Y85199D01*
G37*
%LPD*%
%LPC*%
G36*
X1564039Y595191D02*
X1564039Y595191D01*
X1564039Y605099D01*
X1583606Y605099D01*
X1583546Y604723D01*
X1582941Y602860D01*
X1582051Y601114D01*
X1580900Y599530D01*
X1579514Y598144D01*
X1577930Y596993D01*
X1576184Y596103D01*
X1574321Y595498D01*
X1572386Y595191D01*
X1564039Y595191D01*
G37*
%LPD*%
%LPC*%
G36*
X1197991Y42339D02*
X1197991Y42339D01*
X1197991Y50686D01*
X1198298Y52621D01*
X1198903Y54484D01*
X1199793Y56230D01*
X1200944Y57814D01*
X1202330Y59200D01*
X1203914Y60351D01*
X1205660Y61241D01*
X1207523Y61846D01*
X1207899Y61906D01*
X1207899Y42339D01*
X1197991Y42339D01*
G37*
%LPD*%
%LPC*%
G36*
X1564039Y422291D02*
X1564039Y422291D01*
X1564039Y432199D01*
X1583606Y432199D01*
X1583546Y431823D01*
X1582941Y429960D01*
X1582051Y428214D01*
X1580900Y426630D01*
X1579514Y425244D01*
X1577930Y424093D01*
X1576184Y423203D01*
X1574321Y422598D01*
X1572386Y422291D01*
X1564039Y422291D01*
G37*
%LPD*%
%LPC*%
G36*
X1550614Y249391D02*
X1550614Y249391D01*
X1548679Y249698D01*
X1546816Y250303D01*
X1545070Y251193D01*
X1543486Y252344D01*
X1542100Y253730D01*
X1540949Y255314D01*
X1540059Y257060D01*
X1539454Y258923D01*
X1539394Y259299D01*
X1558961Y259299D01*
X1558961Y249391D01*
X1550614Y249391D01*
G37*
%LPD*%
%LPC*%
G36*
X1549414Y85199D02*
X1549414Y85199D01*
X1547479Y85506D01*
X1545616Y86111D01*
X1543870Y87001D01*
X1542286Y88152D01*
X1540900Y89538D01*
X1539749Y91122D01*
X1538859Y92868D01*
X1538254Y94731D01*
X1538194Y95107D01*
X1557761Y95107D01*
X1557761Y85199D01*
X1549414Y85199D01*
G37*
%LPD*%
%LPC*%
G36*
X1550614Y595191D02*
X1550614Y595191D01*
X1548679Y595498D01*
X1546816Y596103D01*
X1545070Y596993D01*
X1543486Y598144D01*
X1542100Y599530D01*
X1540949Y601114D01*
X1540059Y602860D01*
X1539454Y604723D01*
X1539394Y605099D01*
X1558961Y605099D01*
X1558961Y595191D01*
X1550614Y595191D01*
G37*
%LPD*%
%LPC*%
G36*
X1550614Y422291D02*
X1550614Y422291D01*
X1548679Y422598D01*
X1546816Y423203D01*
X1545070Y424093D01*
X1543486Y425244D01*
X1542100Y426630D01*
X1540949Y428214D01*
X1540059Y429960D01*
X1539454Y431823D01*
X1539394Y432199D01*
X1558961Y432199D01*
X1558961Y422291D01*
X1550614Y422291D01*
G37*
%LPD*%
%LPC*%
G36*
X1207523Y17754D02*
X1207523Y17754D01*
X1205660Y18359D01*
X1203914Y19249D01*
X1202330Y20400D01*
X1200944Y21786D01*
X1199793Y23370D01*
X1198903Y25116D01*
X1198298Y26979D01*
X1197991Y28914D01*
X1197991Y37261D01*
X1207899Y37261D01*
X1207899Y17694D01*
X1207523Y17754D01*
G37*
%LPD*%
%LPC*%
G36*
X1327061Y28729D02*
X1327061Y28729D01*
X1324551Y29769D01*
X1322629Y31691D01*
X1321589Y34201D01*
X1321589Y36919D01*
X1322629Y39429D01*
X1324551Y41351D01*
X1327061Y42391D01*
X1329779Y42391D01*
X1332289Y41351D01*
X1334211Y39429D01*
X1335251Y36919D01*
X1335251Y34201D01*
X1334211Y31691D01*
X1332289Y29769D01*
X1329779Y28729D01*
X1327061Y28729D01*
G37*
%LPD*%
%LPC*%
G36*
X909031Y177471D02*
X909031Y177471D01*
X909031Y184585D01*
X914324Y184585D01*
X915745Y184360D01*
X917114Y183915D01*
X918397Y183261D01*
X919561Y182415D01*
X920579Y181397D01*
X921425Y180233D01*
X922079Y178950D01*
X922524Y177581D01*
X922541Y177471D01*
X909031Y177471D01*
G37*
%LPD*%
%LPC*%
G36*
X507311Y42031D02*
X507311Y42031D01*
X507311Y55541D01*
X507421Y55524D01*
X508790Y55079D01*
X510073Y54425D01*
X511237Y53579D01*
X512255Y52561D01*
X513101Y51397D01*
X513755Y50114D01*
X514199Y48745D01*
X514425Y47324D01*
X514425Y42031D01*
X507311Y42031D01*
G37*
%LPD*%
%LPC*%
G36*
X891459Y177471D02*
X891459Y177471D01*
X891476Y177581D01*
X891921Y178950D01*
X892575Y180233D01*
X893421Y181397D01*
X894439Y182415D01*
X895603Y183261D01*
X896886Y183915D01*
X898255Y184360D01*
X899676Y184585D01*
X904969Y184585D01*
X904969Y177471D01*
X891459Y177471D01*
G37*
%LPD*%
%LPC*%
G36*
X507311Y37969D02*
X507311Y37969D01*
X514425Y37969D01*
X514425Y32676D01*
X514199Y31255D01*
X513755Y29886D01*
X513101Y28603D01*
X512255Y27439D01*
X511237Y26421D01*
X510073Y25575D01*
X508790Y24921D01*
X507421Y24476D01*
X507311Y24459D01*
X507311Y37969D01*
G37*
%LPD*%
%LPC*%
G36*
X496135Y42031D02*
X496135Y42031D01*
X496135Y47324D01*
X496360Y48745D01*
X496805Y50114D01*
X497459Y51397D01*
X498305Y52561D01*
X499322Y53579D01*
X500487Y54425D01*
X501770Y55079D01*
X503138Y55524D01*
X503249Y55541D01*
X503249Y42031D01*
X496135Y42031D01*
G37*
%LPD*%
%LPC*%
G36*
X909031Y166295D02*
X909031Y166295D01*
X909031Y173409D01*
X922541Y173409D01*
X922524Y173299D01*
X922079Y171930D01*
X921425Y170647D01*
X920579Y169483D01*
X919561Y168465D01*
X918397Y167619D01*
X917114Y166965D01*
X915745Y166520D01*
X914324Y166295D01*
X909031Y166295D01*
G37*
%LPD*%
%LPC*%
G36*
X899676Y166295D02*
X899676Y166295D01*
X898255Y166520D01*
X896886Y166965D01*
X895603Y167619D01*
X894439Y168465D01*
X893421Y169483D01*
X892575Y170647D01*
X891921Y171930D01*
X891476Y173299D01*
X891459Y173409D01*
X904969Y173409D01*
X904969Y166295D01*
X899676Y166295D01*
G37*
%LPD*%
%LPC*%
G36*
X503138Y24476D02*
X503138Y24476D01*
X501770Y24921D01*
X500487Y25575D01*
X499322Y26421D01*
X498305Y27439D01*
X497459Y28603D01*
X496805Y29886D01*
X496360Y31255D01*
X496135Y32676D01*
X496135Y37969D01*
X503249Y37969D01*
X503249Y24459D01*
X503138Y24476D01*
G37*
%LPD*%
%LPC*%
G36*
X717339Y693339D02*
X717339Y693339D01*
X717339Y702842D01*
X717678Y702788D01*
X719518Y702190D01*
X721242Y701312D01*
X722807Y700175D01*
X724175Y698807D01*
X725312Y697242D01*
X726190Y695518D01*
X726788Y693678D01*
X726842Y693339D01*
X717339Y693339D01*
G37*
%LPD*%
%LPC*%
G36*
X702758Y693339D02*
X702758Y693339D01*
X702812Y693678D01*
X703410Y695518D01*
X704288Y697242D01*
X705425Y698807D01*
X706793Y700175D01*
X708358Y701312D01*
X710082Y702190D01*
X711922Y702788D01*
X712261Y702842D01*
X712261Y693339D01*
X702758Y693339D01*
G37*
%LPD*%
%LPC*%
G36*
X717339Y688261D02*
X717339Y688261D01*
X726842Y688261D01*
X726788Y687922D01*
X726190Y686082D01*
X725312Y684358D01*
X724175Y682793D01*
X722807Y681425D01*
X721242Y680288D01*
X719518Y679410D01*
X717678Y678812D01*
X717339Y678758D01*
X717339Y688261D01*
G37*
%LPD*%
%LPC*%
G36*
X711922Y678812D02*
X711922Y678812D01*
X710082Y679410D01*
X708358Y680288D01*
X706793Y681425D01*
X705425Y682793D01*
X704288Y684358D01*
X703410Y686082D01*
X702812Y687922D01*
X702758Y688261D01*
X712261Y688261D01*
X712261Y678758D01*
X711922Y678812D01*
G37*
%LPD*%
%LPC*%
G36*
X1438189Y750339D02*
X1438189Y750339D01*
X1438189Y757659D01*
X1439550Y757216D01*
X1440975Y756490D01*
X1442269Y755550D01*
X1443400Y754419D01*
X1444340Y753125D01*
X1445066Y751700D01*
X1445509Y750339D01*
X1438189Y750339D01*
G37*
%LPD*%
%LPC*%
G36*
X1425791Y750339D02*
X1425791Y750339D01*
X1426234Y751700D01*
X1426960Y753125D01*
X1427900Y754419D01*
X1429031Y755550D01*
X1430325Y756490D01*
X1431750Y757216D01*
X1433111Y757659D01*
X1433111Y750339D01*
X1425791Y750339D01*
G37*
%LPD*%
%LPC*%
G36*
X1438189Y745261D02*
X1438189Y745261D01*
X1445509Y745261D01*
X1445066Y743900D01*
X1444340Y742475D01*
X1443400Y741181D01*
X1442269Y740050D01*
X1440975Y739110D01*
X1439550Y738384D01*
X1438189Y737941D01*
X1438189Y745261D01*
G37*
%LPD*%
%LPC*%
G36*
X1431750Y738384D02*
X1431750Y738384D01*
X1430325Y739110D01*
X1429031Y740050D01*
X1427900Y741181D01*
X1426960Y742475D01*
X1426234Y743900D01*
X1425791Y745261D01*
X1433111Y745261D01*
X1433111Y737941D01*
X1431750Y738384D01*
G37*
%LPD*%
%LPC*%
G36*
X1318631Y143931D02*
X1318631Y143931D01*
X1318631Y151045D01*
X1320388Y151045D01*
X1325745Y145688D01*
X1325745Y143931D01*
X1318631Y143931D01*
G37*
%LPD*%
%LPC*%
G36*
X1318631Y132755D02*
X1318631Y132755D01*
X1318631Y139869D01*
X1325745Y139869D01*
X1325745Y138112D01*
X1320388Y132755D01*
X1318631Y132755D01*
G37*
%LPD*%
%LPC*%
G36*
X1307455Y143931D02*
X1307455Y143931D01*
X1307455Y145688D01*
X1312812Y151045D01*
X1314569Y151045D01*
X1314569Y143931D01*
X1307455Y143931D01*
G37*
%LPD*%
%LPC*%
G36*
X1312812Y132755D02*
X1312812Y132755D01*
X1307455Y138112D01*
X1307455Y139869D01*
X1314569Y139869D01*
X1314569Y132755D01*
X1312812Y132755D01*
G37*
%LPD*%
%LPC*%
G36*
X1495331Y50731D02*
X1495331Y50731D01*
X1495331Y57637D01*
X1495441Y57620D01*
X1496810Y57175D01*
X1498093Y56521D01*
X1499257Y55675D01*
X1500275Y54657D01*
X1501121Y53493D01*
X1501775Y52210D01*
X1502220Y50841D01*
X1502237Y50731D01*
X1495331Y50731D01*
G37*
%LPD*%
%LPC*%
G36*
X1495331Y46669D02*
X1495331Y46669D01*
X1502237Y46669D01*
X1502220Y46559D01*
X1501775Y45190D01*
X1501121Y43907D01*
X1500275Y42743D01*
X1499257Y41725D01*
X1498093Y40879D01*
X1496810Y40225D01*
X1495441Y39780D01*
X1495331Y39763D01*
X1495331Y46669D01*
G37*
%LPD*%
%LPC*%
G36*
X1484363Y50731D02*
X1484363Y50731D01*
X1484380Y50841D01*
X1484825Y52210D01*
X1485479Y53493D01*
X1486325Y54657D01*
X1487343Y55675D01*
X1488507Y56521D01*
X1489790Y57175D01*
X1491159Y57620D01*
X1491269Y57637D01*
X1491269Y50731D01*
X1484363Y50731D01*
G37*
%LPD*%
%LPC*%
G36*
X1491159Y39780D02*
X1491159Y39780D01*
X1489790Y40225D01*
X1488507Y40879D01*
X1487343Y41725D01*
X1486325Y42743D01*
X1485479Y43907D01*
X1484825Y45190D01*
X1484380Y46559D01*
X1484363Y46669D01*
X1491269Y46669D01*
X1491269Y39763D01*
X1491159Y39780D01*
G37*
%LPD*%
%LPC*%
G36*
X1561499Y607637D02*
X1561499Y607637D01*
X1561499Y607639D01*
X1561501Y607639D01*
X1561501Y607637D01*
X1561499Y607637D01*
G37*
%LPD*%
%LPC*%
G36*
X1560299Y97645D02*
X1560299Y97645D01*
X1560299Y97647D01*
X1560301Y97647D01*
X1560301Y97645D01*
X1560299Y97645D01*
G37*
%LPD*%
%LPC*%
G36*
X1435649Y747799D02*
X1435649Y747799D01*
X1435649Y747801D01*
X1435651Y747801D01*
X1435651Y747799D01*
X1435649Y747799D01*
G37*
%LPD*%
%LPC*%
G36*
X1561499Y434737D02*
X1561499Y434737D01*
X1561499Y434739D01*
X1561501Y434739D01*
X1561501Y434737D01*
X1561499Y434737D01*
G37*
%LPD*%
%LPC*%
G36*
X1210437Y39799D02*
X1210437Y39799D01*
X1210437Y39801D01*
X1210439Y39801D01*
X1210439Y39799D01*
X1210437Y39799D01*
G37*
%LPD*%
%LPC*%
G36*
X714799Y690799D02*
X714799Y690799D01*
X714799Y690801D01*
X714801Y690801D01*
X714801Y690799D01*
X714799Y690799D01*
G37*
%LPD*%
%LPC*%
G36*
X1561499Y261837D02*
X1561499Y261837D01*
X1561499Y261839D01*
X1561501Y261839D01*
X1561501Y261837D01*
X1561499Y261837D01*
G37*
%LPD*%
D10*
X1417100Y48700D03*
X1442500Y48700D03*
X1442500Y124900D03*
X1417100Y124900D03*
X1467900Y48700D03*
X1493300Y48700D03*
X1467900Y124900D03*
X1493300Y124900D03*
D11*
X1550394Y47354D02*
X1570206Y47354D01*
X1570206Y97646D02*
X1550394Y97646D01*
X60406Y941046D02*
X40594Y941046D01*
X40594Y890754D02*
X60406Y890754D01*
X1110362Y49706D02*
X1110362Y29894D01*
X1160400Y29894D02*
X1160400Y49706D01*
X1210438Y49706D02*
X1210438Y29894D01*
X64106Y822046D02*
X44294Y822046D01*
X44294Y771754D02*
X64106Y771754D01*
X60106Y708446D02*
X40294Y708446D01*
X40294Y658154D02*
X60106Y658154D01*
X924754Y49706D02*
X924754Y29894D01*
X975046Y29894D02*
X975046Y49706D01*
X792354Y49706D02*
X792354Y29894D01*
X842646Y29894D02*
X842646Y49706D01*
D12*
X1342000Y141900D03*
X1329300Y122850D03*
X1316600Y141900D03*
D13*
X913604Y226240D02*
X900396Y226240D01*
X900396Y175440D02*
X913604Y175440D01*
X913604Y200840D02*
X900396Y200840D01*
X1410396Y587500D02*
X1423604Y587500D01*
X1423604Y536700D02*
X1410396Y536700D01*
X1410396Y562100D02*
X1423604Y562100D01*
D14*
X289800Y616800D03*
D15*
X289800Y538800D03*
X714800Y690800D03*
X714800Y464800D03*
D16*
X1080050Y747800D03*
D17*
X1080050Y976400D03*
X1105450Y747800D03*
X1105450Y976400D03*
X1130850Y747800D03*
X1130850Y976400D03*
X1156250Y747800D03*
X1156250Y976400D03*
X1181650Y747800D03*
X1181650Y976400D03*
X1207050Y747800D03*
X1207050Y976400D03*
X1232450Y747800D03*
X1232450Y976400D03*
X1257850Y747800D03*
X1257850Y976400D03*
X1283250Y747800D03*
X1283250Y976400D03*
X1308650Y747800D03*
X1308650Y976400D03*
X1334050Y747800D03*
X1334050Y976400D03*
X1359450Y747800D03*
X1359450Y976400D03*
X1384850Y747800D03*
X1384850Y976400D03*
X1410250Y747800D03*
X1410250Y976400D03*
X1435650Y747800D03*
X1435650Y976400D03*
X1461050Y747800D03*
X1461050Y976400D03*
D18*
X517000Y850900D03*
D19*
X517000Y870000D03*
X517000Y889100D03*
D20*
X303000Y820000D03*
X303000Y920000D03*
D11*
X1551594Y507562D02*
X1571406Y507562D01*
X1571406Y557600D02*
X1551594Y557600D01*
X1551594Y607638D02*
X1571406Y607638D01*
X1571406Y334662D02*
X1551594Y334662D01*
X1551594Y384700D02*
X1571406Y384700D01*
X1571406Y434738D02*
X1551594Y434738D01*
X1551594Y161762D02*
X1571406Y161762D01*
X1571406Y211800D02*
X1551594Y211800D01*
X1551594Y261838D02*
X1571406Y261838D01*
D13*
X479880Y46604D02*
X479880Y33396D01*
X505280Y33396D02*
X505280Y46604D01*
X530680Y46604D02*
X530680Y33396D01*
X556080Y33396D02*
X556080Y46604D01*
X581480Y46604D02*
X581480Y33396D01*
X606880Y33396D02*
X606880Y46604D01*
X632280Y46604D02*
X632280Y33396D01*
D21*
X144600Y32380D02*
X144600Y47620D01*
X170000Y47620D02*
X170000Y32380D01*
X195400Y32380D02*
X195400Y47620D01*
D22*
X1412240Y466090D03*
X1431290Y453390D03*
X1412240Y440690D03*
D23*
X1280000Y382620D03*
X553020Y146350D03*
X586740Y916940D03*
X608330Y916940D03*
X558800Y817880D03*
X779780Y563880D03*
X828040Y459740D03*
X1238250Y652780D03*
X1326520Y645160D03*
X1389220Y476600D03*
X1509400Y685800D03*
X1233010Y146400D03*
X1174590Y154020D03*
X826610Y242920D03*
X760570Y131160D03*
X1115060Y708660D03*
X610170Y195880D03*
X631760Y195880D03*
X787400Y685800D03*
X711200Y787400D03*
X558800Y762000D03*
X1244600Y812800D03*
X1397000Y812800D03*
X1346200Y560070D03*
X1219200Y457200D03*
X851490Y392090D03*
X787400Y609600D03*
X939800Y660400D03*
X939800Y431800D03*
X1041400Y228600D03*
X1193800Y304800D03*
X1216660Y532130D03*
X1473200Y177800D03*
X1447800Y685800D03*
X1346200Y711200D03*
X1219200Y711200D03*
X1143000Y787400D03*
X1143000Y914400D03*
X1244600Y914400D03*
X1371600Y914400D03*
X1524000Y939800D03*
X1041400Y50800D03*
X1066800Y152400D03*
X660400Y254000D03*
X563880Y246380D03*
X558800Y381000D03*
X703580Y579120D03*
X701040Y640080D03*
X558800Y965200D03*
X635000Y965200D03*
X660400Y863600D03*
X889000Y558800D03*
X685800Y381000D03*
X748200Y351000D03*
X990600Y609600D03*
X1041400Y431800D03*
X1193800Y381000D03*
X939800Y508000D03*
X728980Y177800D03*
X1270000Y279400D03*
X581660Y264160D03*
X1531620Y608330D03*
X1531620Y435610D03*
X1531620Y260350D03*
X1529080Y97790D03*
X1122680Y240030D03*
X563880Y279400D03*
X1353820Y35560D03*
X1328420Y35560D03*
X1208220Y136340D03*
D24*
X1208220Y156660D01*
X1425448Y401320D02*
X1412748Y414020D01*
X1303020Y414020D02*
X1290320Y426720D01*
X1290320Y464820D01*
D23*
X1290320Y464820D03*
D24*
X1224280Y172720D02*
X1208220Y156660D01*
X1224280Y172720D02*
X1408314Y172720D01*
X1425448Y189854D01*
X1425448Y401320D01*
X1412748Y414020D02*
X1303020Y414020D01*
X1198880Y91440D02*
X1165860Y91440D01*
X1160400Y85980D01*
X1208220Y100780D02*
X1208220Y136340D01*
X1208220Y100780D02*
X1198880Y91440D01*
X1160400Y85980D02*
X1160400Y39800D01*
D23*
X632280Y886640D03*
D24*
X640080Y878840D01*
X924954Y718284D02*
X955406Y687832D01*
X924954Y718284D02*
X673636Y718284D01*
X1384850Y747800D02*
X1384850Y771610D01*
X640080Y751840D02*
X640080Y878840D01*
X640080Y751840D02*
X673636Y718284D01*
X955406Y687832D02*
X1268106Y687832D01*
X1296035Y715761D01*
X1296035Y767715D01*
X1308100Y779780D01*
X1376680Y779780D01*
X1384850Y771610D01*
D25*
X180000Y941046D02*
X50500Y941046D01*
X180000Y941046D02*
X281954Y941046D01*
D26*
X303000Y920000D01*
D24*
X581480Y40000D02*
X581480Y21410D01*
X575310Y15240D01*
X548640Y15240D01*
X543560Y20320D01*
X580390Y110490D02*
X580390Y132080D01*
X580390Y110490D02*
X543560Y73660D01*
D23*
X580390Y132080D03*
D24*
X543560Y73660D02*
X543560Y20320D01*
X1158240Y683260D02*
X1270000Y683260D01*
X1158240Y683260D02*
X1137920Y662940D01*
X579120Y228600D02*
X579120Y152400D01*
X584820Y146700D02*
X604520Y146700D01*
X584820Y146700D02*
X579120Y152400D01*
D23*
X604520Y146700D03*
D24*
X1308650Y721910D02*
X1308650Y747800D01*
X1308650Y721910D02*
X1270000Y683260D01*
X1137920Y662940D02*
X1137920Y370840D01*
X1079500Y312420D01*
X662940Y312420D01*
X579120Y228600D01*
X1334050Y734610D02*
X1334050Y747800D01*
X1325880Y726440D02*
X1319646Y726440D01*
X1271894Y678688D01*
X632460Y167640D02*
X591820Y167640D01*
X632460Y167640D02*
X640080Y160020D01*
X614680Y93980D02*
X571500Y93980D01*
X556080Y78560D01*
X556080Y40000D01*
X1325880Y726440D02*
X1334050Y734610D01*
X1271894Y678688D02*
X1160134Y678688D01*
X1142492Y661046D01*
X1142492Y368946D01*
X1081394Y307848D01*
X664834Y307848D01*
X583692Y226706D01*
X583692Y175768D01*
X591820Y167640D01*
X640080Y160020D02*
X640080Y119380D01*
X614680Y93980D01*
D25*
X303000Y820000D02*
X120000Y820000D01*
X56246Y820000D01*
D26*
X54200Y822046D01*
X51754Y710000D02*
X50200Y708446D01*
D25*
X51754Y710000D02*
X120000Y710000D01*
X120000Y820000D01*
D24*
X1363400Y91512D02*
X1371600Y83312D01*
X1411594Y83312D01*
X1421246Y73660D02*
X1430020Y73660D01*
X1421246Y73660D02*
X1411594Y83312D01*
X1430020Y73660D02*
X1442500Y61180D01*
X1442500Y48700D01*
D23*
X1363400Y91512D03*
D24*
X1383960Y141900D02*
X1342000Y141900D01*
X1430020Y406400D02*
X1430020Y416080D01*
X1430020Y406400D02*
X1430020Y187960D01*
X1383960Y141900D01*
X1430020Y416080D02*
X1430020Y422910D01*
X1412240Y440690D01*
X842646Y83186D02*
X842646Y39800D01*
X939800Y124460D02*
X939800Y248920D01*
D23*
X939800Y248920D03*
D24*
X861060Y101600D02*
X842646Y83186D01*
X861060Y101600D02*
X916940Y101600D01*
X939800Y124460D01*
D23*
X1181100Y180340D03*
D24*
X977392Y180340D01*
X944372Y147320D01*
X944372Y122428D01*
X975046Y91754D02*
X975046Y39800D01*
X975046Y91754D02*
X944372Y122428D01*
X1329300Y122850D02*
X1329300Y93100D01*
X1343660Y78740D02*
X1409700Y78740D01*
X1417320Y71120D01*
X1343660Y78740D02*
X1329300Y93100D01*
X1417320Y71120D02*
X1417320Y48920D01*
X1417100Y48700D01*
M02*
