G04 EAGLE Gerber RS-274X export*
G75*
%MOMM*%
%FSLAX34Y34*%
%LPD*%
%IN*%
%IPPOS*%
%AMOC8*
5,1,8,0,0,1.08239X$1,22.5*%
G01*
%ADD10C,0.254000*%


D10*
X0Y0D02*
X1600000Y0D01*
X1600000Y1000000D01*
X0Y1000000D01*
X0Y0D01*
X293000Y900000D02*
X293038Y899128D01*
X293152Y898264D01*
X293341Y897412D01*
X293603Y896580D01*
X293937Y895774D01*
X294340Y895000D01*
X294808Y894264D01*
X295340Y893572D01*
X295929Y892929D01*
X296572Y892340D01*
X297264Y891808D01*
X298000Y891340D01*
X298774Y890937D01*
X299580Y890603D01*
X300412Y890341D01*
X301264Y890152D01*
X302128Y890038D01*
X303000Y890000D01*
X303872Y890038D01*
X304736Y890152D01*
X305588Y890341D01*
X306420Y890603D01*
X307226Y890937D01*
X308000Y891340D01*
X308736Y891808D01*
X309428Y892340D01*
X310071Y892929D01*
X310660Y893572D01*
X311192Y894264D01*
X311660Y895000D01*
X312063Y895774D01*
X312397Y896580D01*
X312659Y897412D01*
X312848Y898264D01*
X312962Y899128D01*
X313000Y900000D01*
X313000Y940000D01*
X312962Y940872D01*
X312848Y941736D01*
X312659Y942588D01*
X312397Y943420D01*
X312063Y944226D01*
X311660Y945000D01*
X311192Y945736D01*
X310660Y946428D01*
X310071Y947071D01*
X309428Y947660D01*
X308736Y948192D01*
X308000Y948660D01*
X307226Y949063D01*
X306420Y949397D01*
X305588Y949659D01*
X304736Y949848D01*
X303872Y949962D01*
X303000Y950000D01*
X302128Y949962D01*
X301264Y949848D01*
X300412Y949659D01*
X299580Y949397D01*
X298774Y949063D01*
X298000Y948660D01*
X297264Y948192D01*
X296572Y947660D01*
X295929Y947071D01*
X295340Y946428D01*
X294808Y945736D01*
X294340Y945000D01*
X293937Y944226D01*
X293603Y943420D01*
X293341Y942588D01*
X293152Y941736D01*
X293038Y940872D01*
X293000Y940000D01*
X293000Y900000D01*
X293000Y800000D02*
X293038Y799128D01*
X293152Y798264D01*
X293341Y797412D01*
X293603Y796580D01*
X293937Y795774D01*
X294340Y795000D01*
X294808Y794264D01*
X295340Y793572D01*
X295929Y792929D01*
X296572Y792340D01*
X297264Y791808D01*
X298000Y791340D01*
X298774Y790937D01*
X299580Y790603D01*
X300412Y790341D01*
X301264Y790152D01*
X302128Y790038D01*
X303000Y790000D01*
X303872Y790038D01*
X304736Y790152D01*
X305588Y790341D01*
X306420Y790603D01*
X307226Y790937D01*
X308000Y791340D01*
X308736Y791808D01*
X309428Y792340D01*
X310071Y792929D01*
X310660Y793572D01*
X311192Y794264D01*
X311660Y795000D01*
X312063Y795774D01*
X312397Y796580D01*
X312659Y797412D01*
X312848Y798264D01*
X312962Y799128D01*
X313000Y800000D01*
X313000Y840000D01*
X312962Y840872D01*
X312848Y841736D01*
X312659Y842588D01*
X312397Y843420D01*
X312063Y844226D01*
X311660Y845000D01*
X311192Y845736D01*
X310660Y846428D01*
X310071Y847071D01*
X309428Y847660D01*
X308736Y848192D01*
X308000Y848660D01*
X307226Y849063D01*
X306420Y849397D01*
X305588Y849659D01*
X304736Y849848D01*
X303872Y849962D01*
X303000Y850000D01*
X302128Y849962D01*
X301264Y849848D01*
X300412Y849659D01*
X299580Y849397D01*
X298774Y849063D01*
X298000Y848660D01*
X297264Y848192D01*
X296572Y847660D01*
X295929Y847071D01*
X295340Y846428D01*
X294808Y845736D01*
X294340Y845000D01*
X293937Y844226D01*
X293603Y843420D01*
X293341Y842588D01*
X293152Y841736D01*
X293038Y840872D01*
X293000Y840000D01*
X293000Y800000D01*
X358900Y215376D02*
X358832Y214331D01*
X358695Y213292D01*
X358490Y212265D01*
X358219Y211253D01*
X357883Y210261D01*
X357482Y209293D01*
X357018Y208354D01*
X356495Y207446D01*
X355913Y206575D01*
X355275Y205744D01*
X354584Y204957D01*
X353843Y204216D01*
X353056Y203525D01*
X352225Y202888D01*
X351354Y202306D01*
X350446Y201782D01*
X349507Y201318D01*
X348539Y200917D01*
X347547Y200581D01*
X346535Y200310D01*
X345508Y200105D01*
X344469Y199969D01*
X343424Y199900D01*
X342376Y199900D01*
X341331Y199969D01*
X340292Y200105D01*
X339265Y200310D01*
X338253Y200581D01*
X337261Y200917D01*
X336293Y201318D01*
X335354Y201782D01*
X334446Y202306D01*
X333575Y202888D01*
X332744Y203525D01*
X331957Y204216D01*
X331216Y204957D01*
X330525Y205744D01*
X329888Y206575D01*
X329306Y207446D01*
X328782Y208354D01*
X328318Y209293D01*
X327917Y210261D01*
X327581Y211253D01*
X327310Y212265D01*
X327105Y213292D01*
X326969Y214331D01*
X326900Y215376D01*
X326900Y216424D01*
X326969Y217469D01*
X327105Y218508D01*
X327310Y219535D01*
X327581Y220547D01*
X327917Y221539D01*
X328318Y222507D01*
X328782Y223446D01*
X329306Y224354D01*
X329888Y225225D01*
X330525Y226056D01*
X331216Y226843D01*
X331957Y227584D01*
X332744Y228275D01*
X333575Y228913D01*
X334446Y229495D01*
X335354Y230018D01*
X336293Y230482D01*
X337261Y230883D01*
X338253Y231219D01*
X339265Y231490D01*
X340292Y231695D01*
X341331Y231832D01*
X342376Y231900D01*
X343424Y231900D01*
X344469Y231832D01*
X345508Y231695D01*
X346535Y231490D01*
X347547Y231219D01*
X348539Y230883D01*
X349507Y230482D01*
X350446Y230018D01*
X351354Y229495D01*
X352225Y228913D01*
X353056Y228275D01*
X353843Y227584D01*
X354584Y226843D01*
X355275Y226056D01*
X355913Y225225D01*
X356495Y224354D01*
X357018Y223446D01*
X357482Y222507D01*
X357883Y221539D01*
X358219Y220547D01*
X358490Y219535D01*
X358695Y218508D01*
X358832Y217469D01*
X358900Y216424D01*
X358900Y215376D01*
X706880Y925306D02*
X706812Y924261D01*
X706675Y923222D01*
X706470Y922195D01*
X706199Y921183D01*
X705863Y920191D01*
X705462Y919223D01*
X704998Y918284D01*
X704475Y917376D01*
X703893Y916505D01*
X703255Y915674D01*
X702564Y914887D01*
X701823Y914146D01*
X701036Y913455D01*
X700205Y912818D01*
X699334Y912236D01*
X698426Y911712D01*
X697487Y911248D01*
X696519Y910847D01*
X695527Y910511D01*
X694515Y910240D01*
X693488Y910035D01*
X692449Y909899D01*
X691404Y909830D01*
X690356Y909830D01*
X689311Y909899D01*
X688272Y910035D01*
X687245Y910240D01*
X686233Y910511D01*
X685241Y910847D01*
X684273Y911248D01*
X683334Y911712D01*
X682426Y912236D01*
X681555Y912818D01*
X680724Y913455D01*
X679937Y914146D01*
X679196Y914887D01*
X678505Y915674D01*
X677868Y916505D01*
X677286Y917376D01*
X676762Y918284D01*
X676298Y919223D01*
X675897Y920191D01*
X675561Y921183D01*
X675290Y922195D01*
X675085Y923222D01*
X674949Y924261D01*
X674880Y925306D01*
X674880Y926354D01*
X674949Y927399D01*
X675085Y928438D01*
X675290Y929465D01*
X675561Y930477D01*
X675897Y931469D01*
X676298Y932437D01*
X676762Y933376D01*
X677286Y934284D01*
X677868Y935155D01*
X678505Y935986D01*
X679196Y936773D01*
X679937Y937514D01*
X680724Y938205D01*
X681555Y938843D01*
X682426Y939425D01*
X683334Y939948D01*
X684273Y940412D01*
X685241Y940813D01*
X686233Y941149D01*
X687245Y941420D01*
X688272Y941625D01*
X689311Y941762D01*
X690356Y941830D01*
X691404Y941830D01*
X692449Y941762D01*
X693488Y941625D01*
X694515Y941420D01*
X695527Y941149D01*
X696519Y940813D01*
X697487Y940412D01*
X698426Y939948D01*
X699334Y939425D01*
X700205Y938843D01*
X701036Y938205D01*
X701823Y937514D01*
X702564Y936773D01*
X703255Y935986D01*
X703893Y935155D01*
X704475Y934284D01*
X704998Y933376D01*
X705462Y932437D01*
X705863Y931469D01*
X706199Y930477D01*
X706470Y929465D01*
X706675Y928438D01*
X706812Y927399D01*
X706880Y926354D01*
X706880Y925306D01*
X1366010Y324596D02*
X1365942Y323551D01*
X1365805Y322512D01*
X1365600Y321485D01*
X1365329Y320473D01*
X1364993Y319481D01*
X1364592Y318513D01*
X1364128Y317574D01*
X1363605Y316666D01*
X1363023Y315795D01*
X1362385Y314964D01*
X1361694Y314177D01*
X1360953Y313436D01*
X1360166Y312745D01*
X1359335Y312108D01*
X1358464Y311526D01*
X1357556Y311002D01*
X1356617Y310538D01*
X1355649Y310137D01*
X1354657Y309801D01*
X1353645Y309530D01*
X1352618Y309325D01*
X1351579Y309189D01*
X1350534Y309120D01*
X1349486Y309120D01*
X1348441Y309189D01*
X1347402Y309325D01*
X1346375Y309530D01*
X1345363Y309801D01*
X1344371Y310137D01*
X1343403Y310538D01*
X1342464Y311002D01*
X1341556Y311526D01*
X1340685Y312108D01*
X1339854Y312745D01*
X1339067Y313436D01*
X1338326Y314177D01*
X1337635Y314964D01*
X1336998Y315795D01*
X1336416Y316666D01*
X1335892Y317574D01*
X1335428Y318513D01*
X1335027Y319481D01*
X1334691Y320473D01*
X1334420Y321485D01*
X1334215Y322512D01*
X1334079Y323551D01*
X1334010Y324596D01*
X1334010Y325644D01*
X1334079Y326689D01*
X1334215Y327728D01*
X1334420Y328755D01*
X1334691Y329767D01*
X1335027Y330759D01*
X1335428Y331727D01*
X1335892Y332666D01*
X1336416Y333574D01*
X1336998Y334445D01*
X1337635Y335276D01*
X1338326Y336063D01*
X1339067Y336804D01*
X1339854Y337495D01*
X1340685Y338133D01*
X1341556Y338715D01*
X1342464Y339238D01*
X1343403Y339702D01*
X1344371Y340103D01*
X1345363Y340439D01*
X1346375Y340710D01*
X1347402Y340915D01*
X1348441Y341052D01*
X1349486Y341120D01*
X1350534Y341120D01*
X1351579Y341052D01*
X1352618Y340915D01*
X1353645Y340710D01*
X1354657Y340439D01*
X1355649Y340103D01*
X1356617Y339702D01*
X1357556Y339238D01*
X1358464Y338715D01*
X1359335Y338133D01*
X1360166Y337495D01*
X1360953Y336804D01*
X1361694Y336063D01*
X1362385Y335276D01*
X1363023Y334445D01*
X1363605Y333574D01*
X1364128Y332666D01*
X1364592Y331727D01*
X1364993Y330759D01*
X1365329Y329767D01*
X1365600Y328755D01*
X1365805Y327728D01*
X1365942Y326689D01*
X1366010Y325644D01*
X1366010Y324596D01*
M02*
