G04 EAGLE Gerber RS-274X export*
G75*
%MOMM*%
%FSLAX34Y34*%
%LPD*%
%INSoldermask Top*%
%IPPOS*%
%AMOC8*
5,1,8,0,0,1.08239X$1,22.5*%
G01*
%ADD10R,1.303200X1.203200*%
%ADD11R,1.203200X1.303200*%
%ADD12R,1.603200X2.803200*%
%ADD13R,1.203200X1.603200*%
%ADD14C,1.524000*%
%ADD15C,2.184400*%
%ADD16P,1.649562X8X202.500000*%
%ADD17R,1.503200X1.503200*%
%ADD18R,2.203200X1.503200*%
%ADD19C,1.524000*%
%ADD20R,1.303200X0.853200*%
%ADD21R,2.153200X2.153200*%
%ADD22C,2.153200*%
%ADD23R,1.727200X1.727200*%
%ADD24C,1.727200*%
%ADD25R,1.703200X1.703200*%
%ADD26C,1.703200*%
%ADD27C,1.727200*%
%ADD28C,3.403200*%
%ADD29P,1.649562X8X292.500000*%
%ADD30R,2.803200X1.603200*%
%ADD31R,1.003200X1.003200*%
%ADD32C,2.743200*%
%ADD33C,0.959600*%


D10*
X812010Y459310D03*
X795010Y459310D03*
D11*
X1172840Y141350D03*
X1172840Y124350D03*
D10*
X1520800Y686090D03*
X1537800Y686090D03*
D12*
X780160Y543140D03*
X780160Y502140D03*
D11*
X559800Y850540D03*
X559800Y833540D03*
X608340Y886640D03*
X608340Y903640D03*
X770700Y207440D03*
X770700Y190440D03*
X1258180Y632740D03*
X1258180Y615740D03*
X1290260Y453260D03*
X1290260Y436260D03*
D13*
X799420Y212400D03*
X808920Y190400D03*
X789920Y190400D03*
X770840Y167320D03*
X780340Y145320D03*
X761340Y145320D03*
X1296320Y616960D03*
X1286820Y638960D03*
X1305820Y638960D03*
X1228740Y616960D03*
X1219240Y638960D03*
X1238240Y638960D03*
X1326000Y459400D03*
X1335500Y437400D03*
X1316500Y437400D03*
X1289800Y419400D03*
X1299300Y397400D03*
X1280300Y397400D03*
D14*
X1417100Y48700D03*
X1442500Y48700D03*
X1442500Y124900D03*
X1417100Y124900D03*
X1467900Y48700D03*
X1493300Y48700D03*
X1467900Y124900D03*
X1493300Y124900D03*
D15*
X1550394Y47354D02*
X1570206Y47354D01*
X1570206Y97646D02*
X1550394Y97646D01*
X60406Y941046D02*
X40594Y941046D01*
X40594Y890754D02*
X60406Y890754D01*
X1110362Y49706D02*
X1110362Y29894D01*
X1160400Y29894D02*
X1160400Y49706D01*
X1210438Y49706D02*
X1210438Y29894D01*
X64106Y822046D02*
X44294Y822046D01*
X44294Y771754D02*
X64106Y771754D01*
X60106Y708446D02*
X40294Y708446D01*
X40294Y658154D02*
X60106Y658154D01*
X924754Y49706D02*
X924754Y29894D01*
X975046Y29894D02*
X975046Y49706D01*
X792354Y49706D02*
X792354Y29894D01*
X842646Y29894D02*
X842646Y49706D01*
D16*
X1342000Y141900D03*
X1329300Y122850D03*
X1316600Y141900D03*
D11*
X1377800Y476240D03*
X1360800Y476240D03*
X565260Y887940D03*
X548260Y887940D03*
X1297470Y81590D03*
X1280470Y81590D03*
X924440Y249340D03*
X907440Y249340D03*
X1417340Y616660D03*
X1400340Y616660D03*
D10*
X1317620Y101420D03*
X1317620Y84420D03*
D11*
X1360600Y453020D03*
X1377600Y453020D03*
D10*
X825920Y231920D03*
X825920Y214920D03*
X851000Y214460D03*
X851000Y231460D03*
X1326520Y632740D03*
X1326520Y615740D03*
X1348180Y615740D03*
X1348180Y632740D03*
D17*
X1353060Y50900D03*
X1376060Y50900D03*
D18*
X1364560Y105900D03*
D11*
X1297280Y103330D03*
X1280280Y103330D03*
D10*
X586080Y903640D03*
X586080Y886640D03*
D11*
X1520800Y663280D03*
X1537800Y663280D03*
D19*
X913604Y226240D02*
X900396Y226240D01*
X900396Y175440D02*
X913604Y175440D01*
X913604Y200840D02*
X900396Y200840D01*
X1410396Y587500D02*
X1423604Y587500D01*
X1423604Y536700D02*
X1410396Y536700D01*
X1410396Y562100D02*
X1423604Y562100D01*
D20*
X1220250Y126840D03*
X1220250Y136340D03*
X1220250Y145840D03*
X1196250Y145840D03*
X1196250Y126840D03*
D21*
X289800Y616800D03*
D22*
X289800Y538800D03*
X714800Y690800D03*
X714800Y464800D03*
D20*
X568100Y165700D03*
X568100Y156200D03*
X568100Y146700D03*
X592100Y146700D03*
X592100Y165700D03*
D23*
X1080050Y747800D03*
D24*
X1080050Y976400D03*
X1105450Y747800D03*
X1105450Y976400D03*
X1130850Y747800D03*
X1130850Y976400D03*
X1156250Y747800D03*
X1156250Y976400D03*
X1181650Y747800D03*
X1181650Y976400D03*
X1207050Y747800D03*
X1207050Y976400D03*
X1232450Y747800D03*
X1232450Y976400D03*
X1257850Y747800D03*
X1257850Y976400D03*
X1283250Y747800D03*
X1283250Y976400D03*
X1308650Y747800D03*
X1308650Y976400D03*
X1334050Y747800D03*
X1334050Y976400D03*
X1359450Y747800D03*
X1359450Y976400D03*
X1384850Y747800D03*
X1384850Y976400D03*
X1410250Y747800D03*
X1410250Y976400D03*
X1435650Y747800D03*
X1435650Y976400D03*
X1461050Y747800D03*
X1461050Y976400D03*
D25*
X517000Y850900D03*
D26*
X517000Y870000D03*
X517000Y889100D03*
D15*
X1551594Y507562D02*
X1571406Y507562D01*
X1571406Y557600D02*
X1551594Y557600D01*
X1551594Y607638D02*
X1571406Y607638D01*
X1571406Y334662D02*
X1551594Y334662D01*
X1551594Y384700D02*
X1571406Y384700D01*
X1571406Y434738D02*
X1551594Y434738D01*
X1551594Y161762D02*
X1571406Y161762D01*
X1571406Y211800D02*
X1551594Y211800D01*
X1551594Y261838D02*
X1571406Y261838D01*
D11*
X609820Y182510D03*
X609820Y165510D03*
D10*
X1101040Y710000D03*
X1084040Y710000D03*
D11*
X630930Y182510D03*
X630930Y165510D03*
D19*
X479880Y46604D02*
X479880Y33396D01*
X505280Y33396D02*
X505280Y46604D01*
X530680Y46604D02*
X530680Y33396D01*
X556080Y33396D02*
X556080Y46604D01*
X581480Y46604D02*
X581480Y33396D01*
X606880Y33396D02*
X606880Y46604D01*
X632280Y46604D02*
X632280Y33396D01*
D27*
X144600Y32380D02*
X144600Y47620D01*
X170000Y47620D02*
X170000Y32380D01*
X195400Y32380D02*
X195400Y47620D01*
D28*
X342900Y215900D03*
X690880Y925830D03*
D29*
X1412240Y466090D03*
X1431290Y453390D03*
X1412240Y440690D03*
D30*
X561520Y264160D03*
X520520Y264160D03*
D11*
X850900Y165980D03*
X850900Y148980D03*
X1347470Y596510D03*
X1347470Y579510D03*
X1327150Y490610D03*
X1327150Y507610D03*
D28*
X1350010Y325120D03*
D31*
X990600Y591700D03*
X990600Y576700D03*
X851490Y406180D03*
X851490Y421180D03*
D11*
X812010Y431840D03*
X795010Y431840D03*
X1054490Y584200D03*
X1071490Y584200D03*
D32*
X1087120Y547370D03*
X509270Y209550D03*
D26*
X965200Y381000D03*
D33*
X1280000Y382620D03*
X553020Y146350D03*
X586740Y916940D03*
X608330Y916940D03*
X558800Y817880D03*
X779780Y563880D03*
X828040Y459740D03*
X1238250Y652780D03*
X1326520Y645160D03*
X1389220Y476600D03*
X1509400Y685800D03*
X1233010Y146400D03*
X1174590Y154020D03*
X826610Y242920D03*
X760570Y131160D03*
X1115060Y708660D03*
X610170Y195880D03*
X631760Y195880D03*
X787400Y685800D03*
X711200Y787400D03*
X558800Y762000D03*
X1244600Y812800D03*
X1397000Y812800D03*
X1346200Y560070D03*
X1219200Y457200D03*
X851490Y392090D03*
X787400Y609600D03*
X939800Y660400D03*
X939800Y431800D03*
X1041400Y228600D03*
X1193800Y304800D03*
X1216660Y532130D03*
X1473200Y177800D03*
X1447800Y685800D03*
X1346200Y711200D03*
X1219200Y711200D03*
X1143000Y787400D03*
X1143000Y914400D03*
X1244600Y914400D03*
X1371600Y914400D03*
X1524000Y939800D03*
X1041400Y50800D03*
X1066800Y152400D03*
X660400Y254000D03*
X563880Y246380D03*
X558800Y381000D03*
X703580Y579120D03*
X701040Y640080D03*
X558800Y965200D03*
X635000Y965200D03*
X660400Y863600D03*
X889000Y558800D03*
X685800Y381000D03*
X748200Y351000D03*
X990600Y609600D03*
X1041400Y431800D03*
X1193800Y381000D03*
X939800Y508000D03*
X728980Y177800D03*
X1270000Y279400D03*
X581660Y264160D03*
X1531620Y608330D03*
X1531620Y435610D03*
X1531620Y260350D03*
X1529080Y97790D03*
X1122680Y240030D03*
X563880Y279400D03*
X1353820Y35560D03*
X1328420Y35560D03*
X1208220Y136340D03*
X1290320Y464820D03*
X632280Y886640D03*
X580390Y132080D03*
X604520Y146700D03*
X1363400Y91512D03*
X939800Y248920D03*
X1181100Y180340D03*
M02*
